<?xml version="1.0" encoding="UTF-8"?><svg xmlns="http://www.w3.org/2000/svg" width="409.53" height="551.68" xmlns:xlink="http://www.w3.org/1999/xlink" viewBox="0 0 409.53 551.68"><defs><clipPath id="clippath"><path d="m159.68,264.54h-92.13c0,91.41,58.37,88.68,92.13,139.84,33.77-51.16,92.13-48.43,92.13-139.84h-92.13Z" fill="none"/></clipPath></defs><g id="Tail"><path d="m282.21,455.81c-4.35-38.01,4.65-59.22,14.35-71.73,9.79-12.62,16.43-17.59,27.7-32.65,16.8-22.44,23.6-45.68,26.71-61.83,8.68,4.3,30.68,16.66,43.53,42.54,14.6,29.39,15.59,72.55-12.86,102.89-24.95,26.6-64.68,34.97-99.43,20.78Z" fill="#b0bec5" stroke="#263238" stroke-linecap="round" stroke-linejoin="round" stroke-width="10"/><path d="m301.36,450c-5.33-.5-10.54-1.59-15.58-3.24,1.23-19.19,6.38-33.72,15.36-43.29,4.43-4.72,8.25-8.17,12.29-11.83,5.18-4.69,11.06-10.01,18.59-18.32,10.49-11.57,19.25-24.64,26.19-39.08,4.64,5.47,8.99,12.17,12.08,20.21,8.84,23.02,7.28,57.58-17.05,79.06-13.91,12.28-32.82,18.29-51.88,16.49Z" fill="#fff"/></g><g id="Body"><path d="m292.59,506.82c13.91-61.3,9.13-109.73-10.57-120.8-3.91-2.2-9.78-3.69-18.62-1.17H59.21c-8.84-2.52-14.71-1.03-18.62,1.17-19.69,11.07-24.47,59.5-10.57,120.8" fill="#fff" stroke="#263238" stroke-linecap="round" stroke-linejoin="round" stroke-width="10"/><path d="m257.83,477.57h0c22.52-41.42,29.35-93.76,18.45-140.42,2.72.22,6.64-.22,9.11-.92-11.78-30.35-33.9-52.06-63.97-54.63h-60.11s-60.11,0-60.11,0c-30.07,2.57-52.19,24.28-63.97,54.63,2.47.7,6.39,1.14,9.11.92-10.9,46.66-4.07,99,18.45,140.41h0s193.05,0,193.05,0Z" fill="#fff"/><path d="m65.55,477.55c-2.1-3.87-4.07-7.83-5.88-11.87-1.08-2.37-2.11-4.77-3.08-7.2-.9-2.22-1.75-4.45-2.56-6.71-.46-1.27-.9-2.54-1.33-3.82-.49-1.43-.94-2.86-1.39-4.3-.31-.98-.61-1.97-.9-2.96-1.75-5.96-3.24-12.01-4.45-18.14-.37-1.85-.71-3.7-1.02-5.56-.24-1.38-.46-2.77-.66-4.16-.25-1.64-.47-3.29-.67-4.95-.2-1.54-.38-3.08-.52-4.62-1.29-12.68-1.42-25.5-.37-38.17.31-3.79.73-7.56,1.26-11.31.4-2.8.85-5.58,1.37-8.35.51-2.78,1.09-5.54,1.73-8.29-2.72.22-6.64-.22-9.11-.92,10.15-28.58,33.91-52.06,63.97-54.63-48.25,47.93-55.89,151.87-36.41,195.96Z" fill="#b0bec5"/><path d="m276.25,488.31c8.54.04,16.54,2.09,23.18,5.77,6.64,3.68,11.93,8.98,15.03,15.52,1.77,3.71,2.62,7.38,2.96,10.68s.18,6.23-.09,8.47c-12.1.17-21.36.34-30.62.51-9.26.17-18.52.34-30.62.51H66.52c-12.1-.17-21.36-.34-30.62-.51-9.26-.17-18.52-.34-30.62-.51-.27-2.24-.44-5.17-.09-8.47.34-3.3,1.19-6.97,2.96-10.68,3.11-6.54,8.39-11.84,15.03-15.52,6.64-3.68,14.64-5.73,23.18-5.77" fill="#fff" stroke="#263238" stroke-linecap="round" stroke-linejoin="round" stroke-width="10"/><path d="m92.06,374.46c9.01,16.02,21.1,42.64,24.09,77.18,1.88,21.75-.39,40.39-3.32,54.39" fill="none" stroke="#263238" stroke-linecap="round" stroke-linejoin="round" stroke-width="10"/><path d="m161.31,426.87v119.82h-78.67c.13-5.39,1.21-15.65,7.92-25.56,14.73-21.75,42.73-21.39,45.13-21.32" fill="#fff" stroke="#263238" stroke-linecap="round" stroke-linejoin="round" stroke-width="10"/><path d="m230.56,374.46c-9.01,16.02-21.1,42.64-24.09,77.18-1.88,21.75.39,40.39,3.32,54.39" fill="none" stroke="#263238" stroke-linecap="round" stroke-linejoin="round" stroke-width="10"/><path d="m161.31,426.87v119.82h78.67c-.13-5.39-1.21-15.65-7.92-25.56-14.73-21.75-42.73-21.39-45.13-21.32" fill="#fff" stroke="#263238" stroke-linecap="round" stroke-linejoin="round" stroke-width="10"/><path d="m257.06,477.55c2.1-3.87,4.07-7.83,5.88-11.87,1.08-2.37,2.11-4.77,3.08-7.2.9-2.22,1.75-4.45,2.56-6.71.46-1.27.9-2.54,1.33-3.82.49-1.43.94-2.86,1.39-4.3.31-.98.61-1.97.9-2.96,1.75-5.96,3.24-12.01,4.45-18.14.37-1.85.71-3.7,1.02-5.56.24-1.38.46-2.77.66-4.16.25-1.64.47-3.29.67-4.95.2-1.54.38-3.08.52-4.62,1.29-12.68,1.42-25.5.37-38.17-.31-3.79-.73-7.56-1.26-11.31-.4-2.8-.85-5.58-1.37-8.35-.51-2.78-1.09-5.54-1.73-8.29,2.72.22,6.64-.22,9.11-.92-10.15-28.58-33.91-52.06-63.97-54.63,48.25,47.93,55.89,151.87,36.41,195.96Z" fill="#b0bec5"/><path d="m257.83,477.57h0c22.52-41.42,29.35-93.76,18.45-140.42,2.72.22,6.64-.22,9.11-.92-11.78-30.35-33.9-52.06-63.97-54.63h-60.11s-60.11,0-60.11,0c-30.07,2.57-52.19,24.28-63.97,54.63,2.47.7,6.39,1.14,9.11.92-10.9,46.66-4.07,99,18.45,140.41h0" fill="none" stroke="#263238" stroke-linecap="round" stroke-linejoin="round" stroke-width="10"/></g><g id="Collar"><g clip-path="url(#clippath)" fill="none"><rect x="60.22" y="156.21" width="198.91" height="514.89" transform="translate(319.36 827.32) rotate(180)" fill="#94defb"/><rect x="99.66" y="156.21" width="120.03" height="514.89" transform="translate(319.36 827.32) rotate(180)" fill="#f5c2cc"/><rect x="139.67" y="156.21" width="40.01" height="514.89" transform="translate(319.36 827.32) rotate(180)" fill="#fff"/></g><path d="m159.68,264.54h-92.13c0,91.41,58.37,88.68,92.13,139.84,33.77-51.16,92.13-48.43,92.13-139.84h-92.13Z" fill="none" stroke="#263238" stroke-linecap="round" stroke-linejoin="round" stroke-width="10"/><circle cx="159.68" cy="426.85" r="24.55" fill="#ffb74d" stroke="#263238" stroke-linecap="round" stroke-linejoin="round" stroke-width="10"/><path d="m149.86,438.57c.03.07-.49-5.64-.28-5.82.21-.17,2.75-.35,2.75-.35l.38-12.02s-2.68.24-2.75.24-1.05-5.71-.8-5.89,3.45-1.01,8.12-.87c5.19.11,14.07-.49,14.07,12.54,0,11.29-5.82,12.79-11.91,12.79-3.59,0-9.37-.7-9.58-.63Zm14.39-11.88c0-7.04-3.73-6.31-5.19-6.17-.17,3-.49,10.31-.24,12.26,2.82.35,5.43-.66,5.43-6.1Z" fill="#263238"/></g><g id="Head"><path d="m293.49,203.59h0c-2.81.87-6.55,1.73-11.01,1.98-4,.22-7.46-.11-10.16-.56.5,1.26,1,2.6,1.49,4.03.25.71.5,1.44.74,2.19.32.98.64,2,.95,3.05.15.49.29.99.43,1.5.14.51.28,1.02.42,1.54.25.97.5,1.96.74,2.97.21.88.4,1.76.59,2.67.1.46.19.91.28,1.38.32,1.59.61,3.24.86,4.94.1.64.17,1.27.25,1.9.02.1.03.2.04.3.05.36.09.72.14,1.08.04.36.08.71.12,1.07.04.36.07.71.11,1.06.03.35.06.7.1,1.04h0c.06.71.11,1.39.16,2.07.1,1.36.17,2.69.21,3.98v.08c.04,1.25.06,2.47.06,3.65,0,3.25-.14,6.23-.35,8.89-2.22.36-5.17.61-8.61.28-3.96-.36-7.18-1.36-9.46-2.25-.94,2.64-2.14,5.73-3.65,9.15-.01.01-.01.02-.01.03,0,.02-.02.05-.04.07-20.46,40.91-78.01,34.23-98.2,84.46-20.2-50.26-77.81-43.54-98.24-84.53,0-.01,0-.02,0-.03-1.51-3.42-2.71-6.51-3.65-9.15-2.28.89-5.5,1.89-9.46,2.25-3.44.33-6.39.08-8.61-.28-.53-6.65-.62-15.26.85-25.12,1.47-9.86,4.05-18.06,6.49-24.27-2.7.45-6.16.78-10.16.56-4.46-.25-8.2-1.11-11.01-1.98.24-8.68,1.34-19.63,4.52-31.89,3.78-14.62,9.26-26.32,14.04-34.77-3.64-10.4-9.01-30.22-5.01-53.87C47.24,36.77,86.9-.26,101.24,5.61c6.28,2.57,4.24,11.95,16.66,35.12,4.9,9.14,9.86,16.33,13.61,21.34.96-.29,1.97-.58,3.05-.86.56-.15,1.13-.3,1.71-.44,0,0,.02,0,.02,0,.58-.14,1.18-.29,1.79-.42.01,0,.01-.01.02-.01.92-.21,1.87-.41,2.86-.6.33-.06.66-.13,1-.19.48-.09.97-.18,1.47-.26.68-.12,1.38-.23,2.08-.33.62-.09,1.24-.18,1.87-.26.77-.1,1.54-.19,2.33-.27s1.6-.15,2.42-.22c.81-.06,1.64-.12,2.48-.16h0c.84-.04,1.69-.08,2.56-.1h.14c.73-.02,1.45-.03,2.16-.03h.41c.14,0,.29,0,.43.01.59,0,1.16.01,1.74.02,1.63.04,3.22.12,4.76.24.48.03.96.07,1.43.11.61.05,1.21.11,1.81.18.42.04.84.09,1.26.14,2.17.26,4.22.58,6.16.94.57.11,1.13.22,1.67.33.7.14,1.38.29,2.05.44.88.2,1.74.4,2.56.61,1.47.38,2.83.76,4.09,1.14,3.75-5.01,8.71-12.2,13.61-21.34,12.42-23.17,10.38-32.55,16.66-35.12,14.34-5.87,54,31.16,61.81,77.45,2.69,15.9,1.14,30.06-1.26,40.8-.25,1.12-.51,2.21-.78,3.25-.27,1.05-.54,2.06-.81,3.02-.18.64-.36,1.26-.55,1.87h0c-.31,1.03-.62,2-.92,2.9-.23.71-.46,1.39-.68,2.03.22.4.45.8.67,1.21.45.82.91,1.67,1.37,2.54.24.44.47.89.7,1.34.3.6.62,1.22.93,1.85,2.18,4.4,4.38,9.41,6.39,14.99,1.44,3.99,2.79,8.27,3.97,12.84,1.79,6.9,2.92,13.38,3.61,19.28.15,1.3.29,2.59.4,3.84.11,1.25.21,2.47.28,3.65.03.44.05.89.08,1.32.08,1.31.13,2.58.16,3.8Z" fill="#b0bec5"/><path d="m272.31,205.01c.5,1.26,1,2.6,1.49,4.03.25.71.5,1.44.74,2.19.32.98.64,2,.95,3.05.15.49.29.99.43,1.5.14.51.28,1.02.42,1.54.25.97.5,1.96.74,2.97.41,1.75.79,3.56,1.13,5.45.11.56.21,1.13.3,1.71.1.6.2,1.21.29,1.83.11.74.21,1.47.3,2.2.1.72.18,1.44.26,2.15.08.71.14,1.41.21,2.1h0c.06.71.11,1.39.16,2.07.1,1.36.17,2.69.21,3.98.04,1.28.06,2.52.06,3.73,0,3.25-.14,6.23-.35,8.89-2.22.36-5.17.61-8.61.28-3.96-.36-7.18-1.36-9.46-2.25-.94,2.64-2.14,5.73-3.65,9.15-.01.01-.01.02-.01.03-20.43,40.99-78.04,34.27-98.24,84.53-20.21-50.27-77.84-43.54-98.25-84.56-1.51-3.42-2.71-6.51-3.65-9.15-2.28.89-5.5,1.89-9.46,2.25-3.44.33-6.39.08-8.61-.28-.53-6.65-.62-15.26.85-25.12,1.47-9.86,4.05-18.06,6.49-24.27-2.7.45-6.16.78-10.16.56-4.46-.25-8.2-1.11-11.01-1.98,46.85-20.88,69.6-88.63,133.8-53.62,64.2-35.01,86.95,32.74,133.8,53.62-2.81.87-6.55,1.73-11.01,1.98-4,.22-7.46-.11-10.16-.56Z" fill="#fff"/><path d="m272.31,205.01c.5,1.26,1,2.6,1.49,4.03.25.71.5,1.44.74,2.19.32.98.64,2,.95,3.05.15.49.29.99.43,1.5.14.51.28,1.02.42,1.54.25.97.5,1.96.74,2.97.21.88.4,1.76.59,2.67.1.46.19.91.28,1.38.09.46.18.93.26,1.4.11.56.21,1.13.3,1.71.1.6.2,1.21.29,1.83.09.64.18,1.27.26,1.9.02.1.03.2.04.3.05.36.09.72.14,1.08.04.36.08.71.12,1.07.04.36.07.71.11,1.06.03.35.06.7.1,1.04h0c.06.71.11,1.39.16,2.07.1,1.36.17,2.69.21,3.98v.08c.04,1.25.06,2.47.06,3.65,0,3.25-.14,6.23-.35,8.89-2.22.36-5.17.61-8.61.28-3.96-.36-7.18-1.36-9.46-2.25-1.03,3.3-2.25,6.33-3.65,9.15-.01.01-.01.02-.01.03,0,.02-.02.05-.04.07-20.46,40.91-78.01,34.23-98.2,84.46-20.2-50.26-77.81-43.54-98.24-84.53,0-.01,0-.02,0-.03-1.4-2.82-2.62-5.85-3.65-9.15-2.28.89-5.5,1.89-9.46,2.25-3.44.33-6.39.08-8.61-.28-.53-6.65-.62-15.26.85-25.12,1.47-9.86,4.05-18.06,6.49-24.27-2.7.45-6.16.78-10.16.56-4.46-.25-8.2-1.11-11.01-1.98.24-8.68,1.34-19.63,4.52-31.89,3.78-14.62,9.26-26.32,14.04-34.77-3.64-10.4-9.01-30.22-5.01-53.87C47.24,36.77,86.9-.26,101.24,5.61c6.28,2.57,4.24,11.95,16.66,35.12,4.9,9.14,9.86,16.33,13.61,21.34.96-.29,1.97-.58,3.05-.86.55-.15,1.13-.3,1.71-.44,0,0,.02,0,.02,0,.58-.14,1.18-.28,1.79-.42.01,0,.01-.01.02-.01.92-.21,1.87-.41,2.86-.6.33-.06.66-.13,1-.19.48-.09.97-.18,1.47-.26.68-.12,1.38-.23,2.08-.33.62-.09,1.24-.18,1.87-.26.77-.1,1.54-.19,2.33-.27s1.6-.15,2.42-.22c.81-.06,1.64-.12,2.48-.16h0c.84-.04,1.69-.08,2.56-.1h.14c.73-.02,1.45-.03,2.16-.03h.41c.14,0,.29,0,.43.01.59,0,1.16.01,1.74.02,1.63.04,3.22.12,4.76.24.48.03.96.07,1.43.11.61.05,1.21.11,1.81.18.42.04.84.09,1.26.14,2.17.26,4.22.58,6.16.94.57.11,1.13.22,1.67.33.7.14,1.38.29,2.05.44.89.2,1.74.41,2.56.61,1.47.38,2.83.76,4.09,1.14,3.75-5.01,8.71-12.2,13.61-21.34,12.42-23.17,10.38-32.55,16.66-35.12,14.34-5.87,54,31.16,61.81,77.45,2.69,15.9,1.14,30.06-1.26,40.8-.25,1.12-.51,2.21-.78,3.25-.27,1.05-.54,2.06-.81,3.02-.19.64-.37,1.27-.55,1.87h0c-.31,1.03-.62,2-.92,2.9-.23.71-.47,1.39-.69,2.03.23.4.45.8.68,1.21.45.82.91,1.67,1.37,2.54.24.44.47.89.7,1.34.3.6.62,1.22.93,1.85,2.18,4.4,4.38,9.41,6.39,14.99,1.44,3.99,2.79,8.27,3.97,12.84,1.79,6.9,2.92,13.38,3.61,19.28.15,1.3.29,2.59.4,3.84.11,1.25.2,2.47.28,3.65.03.44.05.89.08,1.32.06,1.31.11,2.58.15,3.8-2.81.87-6.55,1.73-11.01,1.98-4,.22-7.46-.11-10.16-.56Z" fill="none" stroke="#263238" stroke-linecap="round" stroke-linejoin="round" stroke-width="10"/><path d="m87.7,30.57c1.64,4.62,3.75,9.67,6.49,14.96,5.55,10.68,11.95,19,17.55,25.17-8.63,3.85-19.81,9.97-31.1,19.71-7.1,6.12-12.66,12.31-16.94,17.78-2.55-9.72-1.96-17.3-.64-22.86,2.94-12.33,10.07-16.95,17.15-31.76,4.26-8.92,6.36-17.05,7.48-23Z" fill="#fff"/><path d="m87.7,30.57c1.64,4.62,3.75,9.67,6.49,14.96,5.55,10.68,11.95,19,17.55,25.17-8.63,3.85-19.81,9.97-31.1,19.71-7.1,6.12-12.66,12.31-16.94,17.78" fill="none" stroke="#263238" stroke-linecap="round" stroke-linejoin="round" stroke-width="10"/><path d="m231.65,30.57c-1.64,4.62-3.75,9.67-6.49,14.96-5.55,10.68-11.95,19-17.55,25.17,8.63,3.85,19.81,9.97,31.1,19.71,7.1,6.12,12.66,12.31,16.94,17.78,2.55-9.72,1.96-17.3.64-22.86-2.94-12.33-10.07-16.95-17.15-31.76-4.26-8.92-6.36-17.05-7.48-23Z" fill="#fff"/><path d="m231.65,30.57c-1.64,4.62-3.75,9.67-6.49,14.96-5.55,10.68-11.95,19-17.55,25.17,8.63,3.85,19.81,9.97,31.1,19.71,7.1,6.12,12.66,12.31,16.94,17.78" fill="none" stroke="#263238" stroke-linecap="round" stroke-linejoin="round" stroke-width="10"/><path d="m160.76,241.03v-46.72" fill="none" stroke="#263238" stroke-linecap="round" stroke-linejoin="round" stroke-width="10"/><path d="m183.43,193.8c0,10.63-10.15,19.25-22.67,19.25s-22.67-8.62-22.67-19.25c0-10.63,22.67-19.25,22.67-19.25,0,0,22.67,8.62,22.67,19.25Z" fill="#263238" stroke="#263238" stroke-linecap="round" stroke-linejoin="round" stroke-width="10"/><path d="m249.33,147.93c-3.52-5.82-10.92-16.23-24.11-24.22-10.7-6.48-21.33-9.02-29.77-9.89-8.08-.83-15.31,5.02-16.34,13.08l-.02.13c6.25-1.45,14.75-2.59,24.63-1.5,24.01,2.66,39.85,16.71,45.61,22.4Z" fill="#fff"/><path d="m72.19,147.93c3.52-5.82,10.92-16.23,24.11-24.22,10.7-6.48,21.33-9.02,29.77-9.89,8.08-.83,15.31,5.02,16.34,13.08l.02.13c-6.25-1.45-14.75-2.59-24.63-1.5-24.01,2.66-39.85,16.71-45.61,22.4Z" fill="#fff"/><path d="m179.09,276.01c-1.72.77-4.37,1.79-8.05,2.65-.04,0-.08.02-.12.03-6.53,1.52-14.37,1.52-20.9,0-.04,0-.08-.02-.12-.03-3.68-.86-6.33-1.88-8.05-2.65" fill="none" stroke="#263238" stroke-linecap="round" stroke-linejoin="round" stroke-width="5"/><line x1="131.51" y1="62.07" x2="125.12" y2="64.2" fill="none" stroke="#263238" stroke-linecap="round" stroke-linejoin="round" stroke-width="10"/><line x1="187.85" y1="62.07" x2="194.24" y2="64.2" fill="none" stroke="#263238" stroke-linecap="round" stroke-linejoin="round" stroke-width="10"/><path d="m160.76,241.03h-29.23c-4.62,0-8.81-1.87-11.84-4.91s-4.91-7.22-4.91-11.84h0" fill="none" stroke="#263238" stroke-linecap="round" stroke-linejoin="round" stroke-width="10"/><path d="m160.76,241.03h29.23c4.62,0,8.81-1.87,11.84-4.91s4.91-7.22,4.91-11.84h0" fill="none" stroke="#263238" stroke-linecap="round" stroke-linejoin="round" stroke-width="10"/><line x1="160.76" y1="241.03" x2="184.48" y2="241.03" fill="none" stroke="#263238" stroke-linecap="round" stroke-linejoin="round" stroke-width="10"/><path d="m200.84,179.53c3.42-3.42,8.15-5.54,13.37-5.54s9.95,2.12,13.37,5.54" fill="none" stroke="#263238" stroke-linecap="round" stroke-linejoin="round" stroke-width="10"/><path d="m93.94,179.53c3.42-3.42,8.15-5.54,13.37-5.54s9.95,2.12,13.37,5.54" fill="none" stroke="#263238" stroke-linecap="round" stroke-linejoin="round" stroke-width="10"/></g></svg>