<?xml version="1.0" encoding="UTF-8"?><svg xmlns="http://www.w3.org/2000/svg" width="521.26" height="589.46" viewBox="0 0 521.26 589.46"><g id="Tail"><path d="m516.26,567.22H242.52c19.02-20.36,71.05-70.4,148.51-78.08,32.17-3.19,59.65,1.82,79.75,7.75-6.86,1.21-16.49,4.03-26.29,11.12-3.17,2.3-5.92,4.72-8.27,7.08,10.52,1.2,33.38,5.31,54.94,22.68,12.69,10.22,20.52,21.48,25.1,29.45Z" fill="#546e7a"/><path d="m444.57,564.77c-3.79.84-7.73,1.66-11.81,2.45h-133.23c6.64-11.29,23.74-35.57,55.58-46.37,19.43-6.6,36.63-5.55,46.58-4.11-2.24,1.81-5.4,4.86-7.83,9.46-1.16,2.2-1.91,4.28-2.39,6.05,5.63.25,13.38,1.32,21.83,4.86,18.23,7.64,27.76,21.76,31.27,27.66Z" fill="#fff"/><path d="m516.26,567.23H242.52c19.02-20.37,71.05-70.4,148.51-78.08,32.17-3.19,59.65,1.83,79.75,7.75-6.86,1.21-16.49,4.03-26.29,11.12-3.18,2.3-5.92,4.72-8.27,7.08,10.52,1.2,33.38,5.31,54.94,22.68,12.69,10.22,20.52,21.48,25.1,29.46Z" fill="none" stroke="#263238" stroke-linecap="round" stroke-linejoin="round" stroke-width="10"/></g><g id="Body"><path d="m350,529.31c13.91-53.7,9.13-96.13-10.57-105.82-3.91-1.92-9.78-3.23-18.62-1.02H93.94c-8.84-2.21-14.71-.9-18.62,1.02-19.69,9.69-24.47,52.12-10.57,105.82" fill="#fff" stroke="#263238" stroke-linecap="round" stroke-linejoin="round" stroke-width="10"/><path d="m322.32,526.09c16.01-9.05,33.92-3.53,41.08,9.72,7.25,13.43.56,29.42,0,30.71H51.35c-.56-1.29-7.25-17.28,0-30.71,7.16-13.26,25.07-18.77,41.08-9.72" fill="#fff" stroke="#263238" stroke-linecap="round" stroke-linejoin="round" stroke-width="10"/><path d="m311.75,515.66c7.78-13.29,18.81-35.91,23.48-66.12,5-32.37.46-58.93-3.35-74.3,2.6.2,5.83.7,9.39,1.87,2.18.72,4.08,1.56,5.7,2.39-2.21-5.74-6.06-13.84-12.75-22.15-6.55-8.15-13.43-13.53-18.45-16.87,2.77-.22,6.26-.24,10.23.34,3.27.48,6.09,1.25,8.39,2.05-3.66-4.23-9.36-9.86-17.44-14.83-7.34-4.51-14.2-6.96-19.29-8.35H116.87c-5.08,1.39-11.94,3.84-19.29,8.35-8.09,4.97-13.78,10.59-17.44,14.83,2.3-.79,5.12-1.57,8.39-2.05,3.97-.58,7.46-.56,10.23-.34-5.02,3.34-11.9,8.72-18.45,16.87-6.69,8.32-10.53,16.41-12.75,22.15,1.62-.83,3.52-1.67,5.7-2.39,3.56-1.17,6.79-1.68,9.39-1.87-3.81,15.36-8.36,41.93-3.35,74.3,4.67,30.21,15.7,52.82,23.48,66.12" fill="#fff"/><path d="m102.9,515.33c-3.89-6.64-8.6-15.63-12.91-26.71-4.32-11.1-8.23-24.3-10.57-39.41-2.5-16.18-2.61-30.91-1.62-43.52.98-12.61,3.08-23.09,4.97-30.78-1.29.1-2.75.27-4.33.57-1.58.31-3.28.72-5.06,1.31-1.08.36-2.1.75-3.05,1.15-.95.41-1.83.83-2.65,1.24,1.11-2.87,2.62-6.33,4.7-10.11,2.07-3.78,4.7-7.88,8.05-12.04,3.27-4.08,6.63-7.46,9.79-10.24,3.17-2.78,6.14-4.96,8.65-6.63-1.39-.11-2.95-.17-4.67-.12-1.72.03-3.58.17-5.56.47-1.64.24-3.16.56-4.55.91-1.4.35-2.68.74-3.83,1.14,1.83-2.11,4.17-4.58,7.06-7.13,2.88-2.56,6.34-5.21,10.38-7.69,3.67-2.26,7.22-4,10.49-5.35,3.26-1.35,6.25-2.32,8.79-3.01h25.64c-12.32,13.26-30.33,36.27-41.41,69.36-19.48,58.22-4.51,108.85,1.68,126.6Z" fill="#546e7a"/><path d="m311.85,515.33c3.89-6.64,8.6-15.63,12.91-26.71,4.32-11.1,8.23-24.3,10.57-39.41,2.5-16.18,2.61-30.91,1.62-43.52-.98-12.61-3.08-23.09-4.97-30.78,1.29.1,2.75.27,4.33.57,1.58.31,3.28.72,5.06,1.31,1.08.36,2.1.75,3.05,1.15.95.41,1.83.83,2.65,1.24-1.11-2.87-2.62-6.33-4.7-10.11-2.07-3.78-4.7-7.88-8.05-12.04-3.27-4.08-6.63-7.46-9.79-10.24-3.17-2.78-6.14-4.96-8.65-6.63,1.39-.11,2.95-.17,4.67-.12,1.72.03,3.58.17,5.56.47,1.64.24,3.16.56,4.55.91,1.4.35,2.68.74,3.83,1.14-1.83-2.11-4.17-4.58-7.06-7.13-2.88-2.56-6.34-5.21-10.38-7.69-3.67-2.26-7.22-4-10.49-5.35-3.26-1.35-6.25-2.32-8.79-3.01h-25.64c12.32,13.26,30.33,36.27,41.41,69.36,19.48,58.22,4.51,108.85-1.68,126.6Z" fill="#546e7a"/><path d="m311.86,515.33c7.78-13.29,18.81-35.91,23.48-66.12,5-32.37.46-58.93-3.35-74.3,2.6.2,5.83.7,9.39,1.87,2.18.72,4.08,1.56,5.7,2.39-2.21-5.74-6.06-13.84-12.75-22.15-6.55-8.15-13.43-13.53-18.45-16.87,2.77-.22,6.26-.24,10.23.34,3.27.48,6.09,1.25,8.39,2.05-3.66-4.23-9.36-9.86-17.44-14.83-7.34-4.51-14.2-6.96-19.29-8.35H116.98c-5.08,1.39-11.94,3.84-19.29,8.35-8.09,4.97-13.78,10.59-17.44,14.83,2.3-.79,5.12-1.57,8.39-2.05,3.97-.58,7.46-.56,10.23-.34-5.02,3.34-11.9,8.72-18.45,16.87-6.69,8.32-10.53,16.41-12.75,22.15,1.62-.83,3.52-1.67,5.7-2.39,3.56-1.17,6.79-1.68,9.39-1.87-3.81,15.36-8.36,41.93-3.35,74.3,4.67,30.21,15.7,52.82,23.48,66.12" fill="none" stroke="#263238" stroke-linecap="round" stroke-linejoin="round" stroke-width="10"/><path d="m297.27,389.02c-1.58,4.84-4.8,12.57-11.47,20.16-4.85,5.51-9.9,9.11-13.69,11.36-4.2,13.67-8.37,31.71-9.76,53.15-1.46,22.51.59,41.76,3.21,56.27" fill="none" stroke="#263238" stroke-linecap="round" stroke-linejoin="round" stroke-width="10"/><path d="m207.37,453.3v131.16h90.01c1.85-5.66,6.17-21.2,0-34.38-8.79-18.79-36.37-27.45-64.39-12.5" fill="#fff" stroke="#263238" stroke-linecap="round" stroke-linejoin="round" stroke-width="10"/></g><g id="Collar"><circle cx="205.74" cy="407.93" r="24.55" fill="#ffb74d" stroke="#263238" stroke-linecap="round" stroke-linejoin="round" stroke-width="10"/><path d="m112.34,294.17h186.81c0,49.2-39.95,89.15-89.15,89.15h-8.51c-49.2,0-89.15-39.95-89.15-89.15h0Z" fill="#1565c0" stroke="#263238" stroke-linecap="round" stroke-linejoin="round" stroke-width="10"/><path d="m208.95,394.47s3.62-.14,5.33.59c.17.07-.42,6.79-.42,7.91,0,.52-5.43.49-5.43.35-.17-2.02-1.36-2.79-2.44-2.79-.63,0-1.92.31-1.92,1.71,0,1.25,2.61,2.02,5.19,3.55,3.1,1.81,5.71,3.66,5.71,7.94,0,3.94-3.41,6.9-6.9,6.9s-4.88-1.36-5.4-1.95c-.07.77-.14,2.16-.17,2.16-.17-.07-5.26-.31-5.26-.31-.07-.77-.07-7.04-.07-8.85,2.37-.52,4.77-.63,5.47-.52.63,2.37,2.06,3.62,3.17,3.62,1.01,0,1.92-.56,1.92-1.6,0-1.99-2.23-2.61-4.32-3.76-3.1-1.64-6.1-3.41-6.1-8.4,0-3.45,2.86-6.27,7.52-6.27,2.02,0,3.27.77,3.87,1.39l.24-1.67Z" fill="#263238"/></g><g id="Head"><path d="m314,135.86s0,.01,0,.01c3.46,5.38,6.96,11.36,10.32,17.95,5.73,11.19,9.88,21.77,12.95,31.19-.4-.35-.83-.72-1.31-1.1-.46-.38-.98-.78-1.52-1.18-1.82-1.33-4.03-2.72-6.67-3.91-2.94-1.32-5.66-2.1-7.89-2.56h0c3.24,7.25,6.54,15.98,9.2,26.09h0c.2.79.4,1.58.6,2.35.19.77.38,1.54.55,2.31.18.77.35,1.52.52,2.27.19.85.37,1.69.52,2.52.14.65.27,1.3.38,1.93.15.73.28,1.46.41,2.18.13.72.25,1.43.36,2.13s.23,1.4.33,2.1c.1.68.2,1.37.3,2.04.09.68.18,1.36.26,2.02.08.58.15,1.16.22,1.73.26,2.2.46,4.32.62,6.33-.19-.16-.39-.33-.6-.51-.17-.15-.35-.31-.55-.46-.94-.78-2.03-1.59-3.28-2.39-.25-.18-.51-.34-.78-.5-1.25-.77-2.63-1.52-4.15-2.2-3.31-1.51-6.34-2.32-8.74-2.76h0c3.46,6.79,7.92,17.53,9.74,31.38,1.78,13.58.35,24.88-1.15,32.24-2.17-3.78-4.54-7.67-7.14-11.64-1.3-2.01-2.61-3.95-3.92-5.83-.27-.41-.56-.81-.85-1.22-5.22,16.18-12.12,27.6-18.79,35.73-2.22,2.71-4.42,5.06-6.51,7.1-1.21,1.16-2.36,2.22-3.49,3.19-18.49,16.02-34.66,15.82-51.02,33.62-.69.74-1.33,1.5-1.92,2.25-8.97,11.27-8.62,23.21-11.02,32.6-.06.25-.16.48-.28.68-.07.1-.14.2-.21.28,0,0-.01,0,0,.01-.07.08-.15.17-.25.24-.17.16-.38.29-.6.38-.02,0-.03.01-.05.02s-.03,0-.05,0c-.24-.05-.47-.13-.67-.25-.11-.05-.2-.12-.29-.18,0,0-.01,0-.01,0-.09-.07-.18-.15-.27-.23-.16-.17-.3-.38-.41-.61-4.28-8.69-6.39-20.46-17.49-29.64-.73-.62-1.51-1.22-2.34-1.81-19.67-14.06-35.45-10.54-56.84-22.42-1.3-.72-2.65-1.51-4.07-2.4-2.46-1.56-5.1-3.41-7.83-5.61-8.19-6.59-17.3-16.35-25.73-31.11-.2.46-.4.91-.58,1.37-.9,2.1-1.78,4.28-2.64,6.51-1.73,4.42-3.25,8.72-4.6,12.86-2.99-6.9-6.71-17.66-7.76-31.32-1.07-13.93,1.1-25.36,3.09-32.7h0c-2.26.92-5.05,2.33-7.99,4.49-1.35.98-2.55,2-3.61,3.01-.23.21-.45.43-.66.65-1.06,1.04-1.97,2.06-2.72,3.02-.16.19-.31.37-.44.56-.17.22-.33.43-.48.62-.26-2-.5-4.12-.7-6.32-.05-.57-.1-1.15-.14-1.73-.06-.67-.11-1.35-.16-2.03-.04-.68-.08-1.37-.12-2.06-.04-.7-.08-1.41-.11-2.12s-.06-1.43-.08-2.16c-.03-.73-.04-1.47-.05-2.22-.02-.64-.03-1.3-.02-1.97-.02-.84-.02-1.7,0-2.57.01-.77.02-1.54.04-2.33,0-.79.04-1.57.07-2.37.03-.8.06-1.61.1-2.41h0c.53-10.45,1.97-19.67,3.65-27.42h0c-2.09.9-4.58,2.22-7.19,4.12-2.34,1.71-4.22,3.52-5.72,5.2-.45.5-.87,1-1.24,1.47-.39.47-.74.92-1.06,1.35,1.07-9.85,2.96-21.06,6.26-33.19,1.93-7.14,4.13-13.71,6.41-19.69,0,0,0,0-.01,0-1.57-.79-3.67-1.95-6.04-3.58,0,0-10.12-5.58-15.4-15.83-9.57-18.56,3.97-33.23-2.35-58.44,0,0-2.74-12.11-4.09-25.58-.25-2.47-.33-5.28-.15-8.99.04-.99.1-1.97.19-2.94.97-12.76,18.37-20.64,28.24-12.88,2.8,2.19,5.57,3.93,8.23,5.3.57.29,1.13.57,1.68.83.23.11.46.21.7.32.01,0,.03.02.04.03.22.1.44.2.66.29.16.06.31.13.45.19.13.05.25.1.37.15.14.06.27.11.41.17.13.05.24.1.37.14,8.38,3.3,12.81,4.97,17.25,7.16h.01s.02.02.03.03c2.79,1.67,5.77,3.35,8.95,4.97,6.76,4.19,13.36,10.24,18.51,16.11,5.15,5.87,8.84,11.56,9.78,15.04,19.51-16.57,73.82-18.36,89.72-9.32,1.93-5.15,9.78-25.33,21.28-36.3,4.18-3.99,7.78-6.74,7.78-6.74,3.9-3.05,7.89-5.6,15.41-10.55,1.35-.89,2.74-1.9,4.15-3.04,2.33-1.89,4.68-4.16,6.97-6.88,8.07-9.63,26.72-5.49,30.28,6.8.29.94.55,1.88.79,2.84.94,3.59,1.44,6.37,1.7,8.83,1.45,13.46,1.26,25.88,1.26,25.88-1,25.97,15.26,37.54,9.71,57.68-3.06,11.12-11.81,18.66-11.81,18.66-1.99,2.08-3.8,3.64-5.18,4.74Z" fill="#546e7a"/><path d="m335.92,227.66l-.47,3.93-.05.45c-1.3-1.15-3-2.48-5.11-3.78-1.25-.77-2.63-1.52-4.15-2.2-3.31-1.51-6.34-2.32-8.74-2.76,3.46,6.78,7.92,17.52,9.74,31.38,1.78,13.58.35,24.88-1.16,32.24-2.17-3.78-4.54-7.67-7.14-11.64-1.3-2.01-2.61-3.95-3.92-5.83-.27-.41-.56-.82-.85-1.23-7.94,24.65-19.81,38.27-28.79,46.03-18.49,16.02-34.66,15.82-51.02,33.62-10.95,11.9-10.38,24.84-12.94,34.85-.03.11-.07.23-.11.33,0,.02-.02.04-.02.05-.04.09-.1.19-.15.29-.04.06-.09.13-.14.2-.02.03-.04.05-.07.09-.04.05-.09.11-.15.15-.04.05-.1.1-.16.15-.05.06-.12.1-.19.13-.11.08-.24.16-.36.21-.09.04-.17.08-.27.1-.14.05-.29.08-.44.1-.63.07-1.24-.11-1.71-.48-.1-.08-.19-.15-.28-.24-.17-.17-.31-.37-.41-.6-4.56-9.28-6.66-22.05-19.83-31.45-19.67-14.06-35.45-10.54-56.84-22.42-10.38-5.75-24.79-16.64-37.63-39.13-.2.46-.4.92-.58,1.38-.9,2.1-1.78,4.28-2.64,6.51-1.73,4.42-3.25,8.72-4.6,12.86-2.99-6.9-6.71-17.66-7.76-31.32-1.07-13.94,1.09-25.37,3.09-32.71-2.26.93-5.05,2.34-7.99,4.5-1.35.98-2.55,2-3.61,3.01-1.79,1.7-3.19,3.36-4.23,4.75l-.13-.39-1.28-3.78c-.59-5.65-.14-11.18-.06-16.64.82-53.66,66.17-103.71,122.35-86.14,43.24-29.92,119.76,2.31,137.48,59.41,1.61,5.15,2.73,10.5,3.3,16.03Z" fill="#fff"/><path d="m204.7,240.03c-2.58-24.83-3.61-34.71-6.19-59.54" fill="none" stroke="#263238" stroke-linecap="round" stroke-linejoin="round" stroke-width="10"/><path d="m157.18,208.46c-1.04.61-2.66,1.43-4.95,2.22-.03,0-.05.02-.08.03-4.06,1.4-9.05,1.92-13.3,1.38-.03,0-.05,0-.08-.01-2.4-.31-4.15-.78-5.3-1.16" fill="none" stroke="#263238" stroke-linecap="round" stroke-linejoin="round" stroke-width="5"/><path d="m268.44,196.9c-1.04.61-2.66,1.43-4.95,2.22-.03,0-.05.02-.08.03-4.06,1.4-9.05,1.92-13.3,1.38-.03,0-.05,0-.08-.01-2.4-.31-4.15-.78-5.3-1.16" fill="none" stroke="#263238" stroke-linecap="round" stroke-linejoin="round" stroke-width="5"/><path d="m143.06,83.15c-1.46,1.08-2.98,2.27-4.53,3.59-1.95,1.66-3.71,3.31-5.28,4.89" fill="none" stroke="#263238" stroke-linecap="round" stroke-linejoin="round" stroke-width="10"/><path d="m232.78,73.83c1.65.76,3.38,1.61,5.17,2.58,2.25,1.22,4.31,2.47,6.18,3.7" fill="none" stroke="#263238" stroke-linecap="round" stroke-linejoin="round" stroke-width="10"/><path d="m71.58,58.8c7.06,2.78,20.05,8.43,31.21,16.94,4.75,3.62,7.69,6.52,9.86,9.39,3.47,4.59,5.87,9.09,7.56,13.01-3.49,0-8.7.39-14.62,2.42-6.89,2.37-11.74,5.92-14.55,8.33,1.34.26,3.75.91,6.2,2.7,2.31,1.68,3.61,3.6,4.28,4.76-3.94,3.61-8.71,8.71-13.06,15.54-.53.84-1.04,1.67-1.52,2.48-2.27,3.87-3.95,7.52-5.21,10.72-2.1-3.09-4.74-7.89-5.62-14.08-1.9-13.48,6.31-21.45,8.63-32.66,1.81-8.74.49-21.57-13.18-39.56Z" fill="#fff"/><path d="m71.58,58.8c7.06,2.78,20.05,8.43,31.21,16.94,4.75,3.62,7.69,6.52,9.86,9.39,3.47,4.59,5.87,9.09,7.56,13.01-3.49,0-8.7.39-14.62,2.42-6.89,2.37-11.74,5.92-14.55,8.33,1.34.26,3.75.91,6.2,2.7,2.31,1.68,3.61,3.6,4.28,4.76-3.94,3.61-8.71,8.71-13.06,15.54-.78,1.22-1.52,2.48-1.52,2.48-2.5,4.28-4.16,8.04-5.21,10.72" fill="none" stroke="#263238" stroke-linecap="round" stroke-linejoin="round" stroke-width="10"/><path d="m297.73,35.31c-6.34,4.17-17.89,12.37-27.06,23-3.9,4.52-6.18,7.96-7.72,11.22-2.45,5.2-3.88,10.1-4.73,14.28,3.41-.72,8.59-1.4,14.8-.63,7.23.9,12.71,3.38,15.95,5.16-1.25.53-3.48,1.67-5.51,3.92-1.91,2.11-2.79,4.27-3.21,5.54,4.59,2.72,10.31,6.74,15.97,12.52.69.71,1.36,1.42,1.99,2.12,3.02,3.32,5.41,6.55,7.3,9.42,1.42-3.46,3.02-8.7,2.6-14.94-.91-13.58-10.58-19.69-15.16-30.19-3.57-8.18-4.91-21.01,4.76-41.42Z" fill="#fff"/><path d="m297.73,35.31c-6.34,4.17-17.89,12.37-27.06,23-3.9,4.52-6.18,7.96-7.72,11.22-2.45,5.2-3.88,10.1-4.73,14.28,3.41-.72,8.6-1.41,14.8-.63,7.23.91,12.71,3.38,15.95,5.16-1.25.53-3.48,1.67-5.51,3.92-1.91,2.12-2.79,4.27-3.21,5.54,4.59,2.72,10.31,6.74,15.97,12.52,1.02,1.04,1.99,2.12,1.99,2.12,3.33,3.68,5.72,7.01,7.3,9.42" fill="none" stroke="#263238" stroke-linecap="round" stroke-linejoin="round" stroke-width="10"/><path d="m315.12,135.75s0,.01,0,.01c3.46,5.38,6.96,11.36,10.32,17.95,5.73,11.19,9.88,21.77,12.95,31.19-.4-.35-.83-.72-1.31-1.1-.46-.38-.98-.78-1.52-1.18-1.82-1.33-4.03-2.72-6.67-3.91-2.94-1.32-5.66-2.1-7.89-2.56h0c3.24,7.25,6.54,15.98,9.2,26.09h0c.2.79.4,1.58.6,2.35.19.77.38,1.54.55,2.31.18.77.35,1.52.52,2.27.19.85.37,1.69.52,2.52.14.65.27,1.3.38,1.93.15.73.28,1.46.41,2.18.13.72.25,1.43.36,2.13s.23,1.4.33,2.1c.1.68.2,1.37.3,2.04.09.68.18,1.36.26,2.02.08.58.15,1.16.22,1.73.26,2.2.46,4.32.62,6.33-.19-.16-.39-.33-.6-.51-.17-.15-.35-.31-.55-.46-.94-.78-2.03-1.59-3.28-2.39-.25-.18-.51-.34-.78-.5-1.25-.77-2.63-1.52-4.15-2.2-3.31-1.51-6.34-2.32-8.74-2.76h0c3.46,6.79,7.92,17.53,9.74,31.38,1.78,13.58.35,24.88-1.15,32.24-2.17-3.78-4.54-7.67-7.14-11.64-1.3-2.01-2.61-3.95-3.92-5.83-.27-.41-.56-.81-.85-1.22-5.22,16.18-12.12,27.6-18.79,35.73-2.22,2.71-4.42,5.06-6.51,7.1-1.21,1.16-2.36,2.22-3.49,3.19-18.49,16.02-34.66,15.82-51.02,33.62-.69.74-1.33,1.5-1.92,2.25-8.97,11.27-8.62,23.21-11.02,32.6-.06.25-.16.48-.28.68-.07.1-.14.2-.21.28,0,0-.01,0,0,.01-.07.08-.15.17-.25.24-.17.16-.38.29-.6.38-.02,0-.03.01-.05.02s-.03,0-.05,0c-.24-.05-.47-.13-.67-.25-.11-.05-.2-.12-.29-.18,0,0-.01,0-.01,0-.09-.07-.18-.15-.27-.23-.16-.17-.3-.38-.41-.61-4.28-8.69-6.39-20.46-17.49-29.64-.73-.62-1.51-1.22-2.34-1.81-19.67-14.06-35.45-10.54-56.84-22.42-1.3-.72-2.65-1.51-4.07-2.4-2.46-1.56-5.1-3.41-7.83-5.61-8.19-6.59-17.3-16.35-25.73-31.11-.2.46-.4.91-.58,1.37-.9,2.1-1.78,4.28-2.64,6.51-1.73,4.42-3.25,8.72-4.6,12.86-2.99-6.9-6.71-17.66-7.76-31.32-1.07-13.93,1.1-25.36,3.09-32.7h0c-2.26.92-5.05,2.33-7.99,4.49-1.35.98-2.55,2-3.61,3.01-.23.21-.45.43-.66.65-1.06,1.04-1.97,2.06-2.72,3.02-.16.19-.31.37-.44.56-.17.22-.33.43-.48.62-.26-2-.5-4.12-.7-6.32-.05-.57-.1-1.15-.14-1.73-.06-.67-.11-1.35-.16-2.03-.04-.68-.08-1.37-.12-2.06-.04-.7-.08-1.41-.11-2.12s-.06-1.43-.08-2.16c-.03-.73-.04-1.47-.05-2.22-.02-.64-.03-1.3-.02-1.97-.02-.84-.02-1.7,0-2.57.01-.77.02-1.54.04-2.33,0-.79.04-1.57.07-2.37.03-.8.06-1.61.1-2.41h0c.53-10.45,1.97-19.67,3.65-27.42h0c-2.09.9-4.58,2.22-7.19,4.12-2.34,1.71-4.22,3.52-5.72,5.2-.45.5-.87,1-1.24,1.47-.39.47-.74.92-1.06,1.35,1.07-9.85,2.96-21.06,6.26-33.19,1.93-7.14,4.13-13.71,6.41-19.69,0,0,0,0-.01,0-1.57-.79-3.67-1.95-6.04-3.58,0,0-10.12-5.58-15.4-15.83-9.57-18.56,3.97-33.23-2.35-58.44,0,0-2.74-12.11-4.09-25.58-.25-2.47-.33-5.28-.15-8.99.04-.99.1-1.97.19-2.94.97-12.76,18.37-20.64,28.24-12.88,2.8,2.19,5.57,3.93,8.23,5.3.57.29,1.13.57,1.68.83.23.11.46.21.7.32.01,0,.03.02.04.03.22.1.44.2.66.29.16.06.31.13.45.19.13.05.25.1.37.15.14.06.27.11.41.17.13.05.24.1.37.14,8.38,3.3,12.81,4.97,17.25,7.16h.01s.02.02.03.03c.47.22,4.34,2.11,8.95,4.97,6.76,4.19,13.36,10.24,18.51,16.11s8.84,11.56,9.78,15.04c19.51-16.57,73.82-18.36,89.72-9.32,1.93-5.15,9.78-25.33,21.28-36.3,4.18-3.99,7.78-6.74,7.78-6.74,3.9-3.05,7.89-5.6,15.41-10.55,1.35-.89,2.74-1.9,4.15-3.04,2.33-1.89,4.68-4.16,6.97-6.88,8.07-9.63,26.72-5.49,30.28,6.8.29.94.55,1.88.79,2.84.94,3.59,1.44,6.37,1.7,8.83,1.45,13.46,1.26,25.88,1.26,25.88-1,25.97,15.26,37.54,9.71,57.68-3.06,11.12-11.81,18.66-11.81,18.66-1.99,2.08-3.8,3.64-5.18,4.74Z" fill="none" stroke="#263238" stroke-linecap="round" stroke-linejoin="round" stroke-width="10"/><path d="m199.22,136.28c15.28-6.76,36.49-13.81,62.33-15.74,9.47-.7,18.26-.62,26.2-.09-.93,4.71-1.86,9.42-2.78,14.13,2.8,1.98,5.61,3.95,8.41,5.93-12.45-2.43-26.7-4.44-42.49-5.37-19.43-1.14-36.85-.39-51.67,1.14Z" fill="#fff"/><path d="m190.4,137.4c-16.33-3.54-38.52-6.19-64.23-2.87-9.42,1.22-18.01,3.06-25.68,5.19,1.86,4.43,3.71,8.85,5.57,13.28-2.35,2.5-4.7,5-7.04,7.5,11.7-4.88,25.26-9.73,40.54-13.81,18.8-5.03,36.01-7.8,50.84-9.28Z" fill="#fff"/><circle cx="143.33" cy="190.49" r="13.6" fill="#263238"/><circle cx="254.39" cy="178.95" r="13.6" fill="#263238"/><path d="m169.9,221.19c-16.39,3.14-32.93,4.86-49.62,5.17-4.41.06-9.39-3.23-11.4-7.59-5.49-12.2-9.25-24.28-10.2-36.29-.35-5.02,4.7-10.74,9.7-11.59,20.2-3.18,41.15-3.98,62.7-3.16,5.56.28,11.5,5.06,11.86,10.25.68,10.75-.52,21.03-3.45,33.55-1.13,4.63-5.29,8.81-9.58,9.65Z" fill="#fff" opacity=".3"/><path d="m235.12,214.42c16.69-.3,33.23-2.01,49.62-5.14,4.33-.85,8.52-5.09,9.6-9.77,2.87-13.07,4.06-25.67,2.52-37.62-.69-4.98-6.8-9.54-11.87-9.34-20.42,1.03-41.09,4.57-62.01,9.8-5.38,1.41-10.22,7.31-9.49,12.47,1.53,10.61,5.23,21.32,10.28,32.12,2.06,4.3,6.99,7.53,11.36,7.47Z" fill="#fff" opacity=".3"/><path d="m182.95,178.01c9.79-4.78,19.96-5.84,30.53-3.17" fill="none" stroke="#263238" stroke-miterlimit="10" stroke-width="10"/><path d="m169.9,221.19c-16.39,3.14-32.93,4.86-49.62,5.17-4.41.06-9.39-3.23-11.4-7.59-5.49-12.2-9.25-24.28-10.2-36.29-.35-5.02,4.7-10.74,9.7-11.59,20.2-3.18,41.15-3.98,62.7-3.16,5.56.28,11.5,5.06,11.86,10.25.68,10.75-.52,21.03-3.45,33.55-1.13,4.63-5.29,8.81-9.58,9.65Z" fill="none" stroke="#263238" stroke-miterlimit="10" stroke-width="10"/><path d="m235.12,214.42c16.69-.3,33.23-2.01,49.62-5.14,4.33-.85,8.52-5.09,9.6-9.77,2.87-13.07,4.06-25.67,2.52-37.62-.69-4.98-6.8-9.54-11.87-9.34-20.42,1.03-41.09,4.57-62.01,9.8-5.38,1.41-10.22,7.31-9.49,12.47,1.53,10.61,5.23,21.32,10.28,32.12,2.06,4.3,6.99,7.53,11.36,7.47Z" fill="none" stroke="#263238" stroke-miterlimit="10" stroke-width="10"/><line x1="98.68" y1="182.48" x2="69.4" y2="185.52" fill="none" stroke="#263238" stroke-linecap="round" stroke-linejoin="round" stroke-width="10"/><line x1="326.15" y1="158.85" x2="296.87" y2="161.89" fill="none" stroke="#263238" stroke-linecap="round" stroke-linejoin="round" stroke-width="10"/><path d="m224.95,191.89c1.22,11.71-8.98,22.36-22.77,23.8-13.79,1.43-25.96-6.9-27.18-18.61-.85-8.21,10.69-16.61,17.66-20.89,3.22-1.98,7.15-2.38,10.71-1.11,7.7,2.76,20.73,8.61,21.58,16.82Z" fill="#263238" stroke="#263238" stroke-linecap="round" stroke-linejoin="round" stroke-width="10"/><path d="m250.07,300.21c-3.34,1.5-8.5,3.54-15.76,5.57-.08.02-.16.05-.25.07-12.88,3.57-28.62,5.17-41.96,4.25-.08,0-.17-.01-.26-.02-7.52-.53-12.99-1.5-16.56-2.29" fill="none" stroke="#263238" stroke-linecap="round" stroke-linejoin="round" stroke-width="5"/><rect x="140.92" y="244.07" width="132.91" height="47.6" rx="23.8" ry="23.8" transform="translate(-25.94 22.26) rotate(-5.78)" fill="none" stroke="#263238" stroke-linecap="round" stroke-linejoin="round" stroke-width="10"/><line x1="141.26" y1="274.57" x2="171.4" y2="271.51" fill="none" stroke="#263238" stroke-linecap="round" stroke-linejoin="round" stroke-width="5"/><line x1="243.35" y1="264.22" x2="273.49" y2="261.17" fill="none" stroke="#263238" stroke-linecap="round" stroke-linejoin="round" stroke-width="5"/></g><g id="Paw"><path d="m155.91,433.9c-57.87,0-104.78-46.91-104.78-104.78" fill="#fff" stroke="#263238" stroke-linecap="round" stroke-linejoin="round" stroke-width="10"/><path d="m138.6,312.42c-1.48-8.08-6.01-15.11-12.77-19.78-9.82-6.79-22.23-7.05-32.08-1.76-6.8-8.88-18.22-13.75-29.96-11.6-11.74,2.14-20.71,10.73-23.93,21.44-11.09-1.47-22.6,3.17-29.39,12.98-4.67,6.76-6.43,14.93-4.96,23.01,1.48,8.08,6.01,15.11,12.77,19.78,4.27,2.95,9.11,4.74,14.13,5.28.05,2.44.29,4.91.74,7.39,4.58,25.11,28.74,41.81,53.85,37.22,25.11-4.58,41.81-28.74,37.22-53.85-.45-2.48-1.1-4.87-1.92-7.17,4.5-2.28,8.4-5.66,11.35-9.93,4.67-6.76,6.43-14.93,4.96-23.01Z" fill="#fff" stroke="#263238" stroke-linecap="round" stroke-linejoin="round" stroke-width="10"/><circle cx="78.68" cy="360.85" r="25.19" fill="#ef9a9a" stroke="#263238" stroke-linecap="round" stroke-linejoin="round" stroke-width="10"/><circle cx="69.31" cy="309.54" r="13.4" fill="#ef9a9a" stroke="#263238" stroke-linecap="round" stroke-linejoin="round" stroke-width="10"/><circle cx="35.77" cy="331.19" r="13.4" fill="#ef9a9a" stroke="#263238" stroke-linecap="round" stroke-linejoin="round" stroke-width="10"/><circle cx="108.34" cy="317.94" r="13.4" fill="#ef9a9a" stroke="#263238" stroke-linecap="round" stroke-linejoin="round" stroke-width="10"/></g></svg>