<?xml version="1.0" encoding="UTF-8"?><svg xmlns="http://www.w3.org/2000/svg" width="478.26" height="578.11" viewBox="0 0 478.26 578.11"><g id="Tail"><path d="m473.26,555.88H199.52c19.02-20.36,71.05-70.4,148.51-78.08,32.17-3.19,59.65,1.82,79.75,7.75-6.86,1.21-16.49,4.03-26.29,11.12-3.17,2.3-5.92,4.72-8.27,7.08,10.52,1.2,33.38,5.31,54.94,22.68,12.69,10.22,20.52,21.48,25.1,29.45Z" fill="#546e7a"/><path d="m401.57,553.43c-3.79.84-7.73,1.66-11.81,2.45h-133.23c6.64-11.29,23.74-35.57,55.58-46.37,19.43-6.6,36.63-5.55,46.58-4.11-2.24,1.81-5.4,4.86-7.83,9.46-1.16,2.2-1.91,4.28-2.39,6.05,5.63.25,13.38,1.32,21.83,4.86,18.23,7.64,27.76,21.76,31.27,27.66Z" fill="#fff"/><path d="m473.26,555.88H199.52c19.02-20.37,71.05-70.4,148.51-78.08,32.17-3.19,59.65,1.83,79.75,7.75-6.86,1.21-16.49,4.03-26.29,11.12-3.18,2.3-5.92,4.72-8.27,7.08,10.52,1.2,33.38,5.31,54.94,22.68,12.69,10.22,20.52,21.48,25.1,29.46Z" fill="none" stroke="#263238" stroke-linecap="round" stroke-linejoin="round" stroke-width="10"/></g><g id="Body"><path d="m306.99,517.96c13.91-53.7,9.13-96.13-10.57-105.82-3.91-1.92-9.78-3.23-18.62-1.02H50.94c-8.84-2.21-14.71-.9-18.62,1.02-19.69,9.69-24.47,52.12-10.57,105.82" fill="#fff" stroke="#263238" stroke-linecap="round" stroke-linejoin="round" stroke-width="10"/><path d="m279.32,514.74c16.01-9.05,33.92-3.53,41.08,9.72,7.25,13.43.56,29.42,0,30.71H8.35c-.56-1.29-7.25-17.28,0-30.71,7.16-13.26,25.07-18.77,41.08-9.72" fill="#fff" stroke="#263238" stroke-linecap="round" stroke-linejoin="round" stroke-width="10"/><path d="m268.75,504.32c7.78-13.29,18.81-35.91,23.48-66.12,5-32.37.46-58.93-3.35-74.3,2.6.2,5.83.7,9.39,1.87,2.18.72,4.08,1.56,5.7,2.39-2.21-5.74-6.06-13.84-12.75-22.15-6.55-8.15-13.43-13.53-18.45-16.87,2.77-.22,6.26-.24,10.23.34,3.27.48,6.09,1.25,8.39,2.05-3.66-4.23-9.36-9.86-17.44-14.83-7.34-4.51-14.2-6.96-19.29-8.35H73.87c-5.08,1.39-11.94,3.84-19.29,8.35-8.09,4.97-13.78,10.59-17.44,14.83,2.3-.79,5.12-1.57,8.39-2.05,3.97-.58,7.46-.56,10.23-.34-5.02,3.34-11.9,8.72-18.45,16.87-6.69,8.32-10.53,16.41-12.75,22.15,1.62-.83,3.52-1.67,5.7-2.39,3.56-1.17,6.79-1.68,9.39-1.87-3.81,15.36-8.36,41.93-3.35,74.3,4.67,30.21,15.7,52.82,23.48,66.12" fill="#fff"/><path d="m59.9,503.99c-3.89-6.64-8.6-15.63-12.91-26.71-4.32-11.1-8.23-24.3-10.57-39.41-2.5-16.18-2.61-30.91-1.62-43.52.98-12.61,3.08-23.09,4.97-30.78-1.29.1-2.75.27-4.33.57-1.58.31-3.28.72-5.06,1.31-1.08.36-2.1.75-3.05,1.15-.95.41-1.83.83-2.65,1.24,1.11-2.87,2.62-6.33,4.7-10.11,2.07-3.78,4.7-7.88,8.05-12.04,3.27-4.08,6.63-7.46,9.79-10.24,3.17-2.78,6.14-4.96,8.65-6.63-1.39-.11-2.95-.17-4.67-.12-1.72.03-3.58.17-5.56.47-1.64.24-3.16.56-4.55.91-1.4.35-2.68.74-3.83,1.14,1.83-2.11,4.17-4.58,7.06-7.13,2.88-2.56,6.34-5.21,10.38-7.69,3.67-2.26,7.22-4,10.49-5.35,3.26-1.35,6.25-2.32,8.79-3.01h25.64c-12.32,13.26-30.33,36.27-41.41,69.36-19.48,58.22-4.51,108.85,1.68,126.6Z" fill="#546e7a"/><path d="m268.85,503.99c3.89-6.64,8.6-15.63,12.91-26.71,4.32-11.1,8.23-24.3,10.57-39.41,2.5-16.18,2.61-30.91,1.62-43.52-.98-12.61-3.08-23.09-4.97-30.78,1.29.1,2.75.27,4.33.57,1.58.31,3.28.72,5.06,1.31,1.08.36,2.1.75,3.05,1.15.95.41,1.83.83,2.65,1.24-1.11-2.87-2.62-6.33-4.7-10.11-2.07-3.78-4.7-7.88-8.05-12.04-3.27-4.08-6.63-7.46-9.79-10.24-3.17-2.78-6.14-4.96-8.65-6.63,1.39-.11,2.95-.17,4.67-.12,1.72.03,3.58.17,5.56.47,1.64.24,3.16.56,4.55.91,1.4.35,2.68.74,3.83,1.14-1.83-2.11-4.17-4.58-7.06-7.13-2.88-2.56-6.34-5.21-10.38-7.69-3.67-2.26-7.22-4-10.49-5.35-3.26-1.35-6.25-2.32-8.79-3.01h-25.64c12.32,13.26,30.33,36.27,41.41,69.36,19.48,58.22,4.51,108.85-1.68,126.6Z" fill="#546e7a"/><path d="m268.86,503.99c7.78-13.29,18.81-35.91,23.48-66.12,5-32.37.46-58.93-3.35-74.3,2.6.2,5.83.7,9.39,1.87,2.18.72,4.08,1.56,5.7,2.39-2.21-5.74-6.06-13.84-12.75-22.15-6.55-8.15-13.43-13.53-18.45-16.87,2.77-.22,6.26-.24,10.23.34,3.27.48,6.09,1.25,8.39,2.05-3.66-4.23-9.36-9.86-17.44-14.83-7.34-4.51-14.2-6.96-19.29-8.35H73.98c-5.08,1.39-11.94,3.84-19.29,8.35-8.09,4.97-13.78,10.59-17.44,14.83,2.3-.79,5.12-1.57,8.39-2.05,3.97-.58,7.46-.56,10.23-.34-5.02,3.34-11.9,8.72-18.45,16.87-6.69,8.32-10.53,16.41-12.75,22.15,1.62-.83,3.52-1.67,5.7-2.39,3.56-1.17,6.79-1.68,9.39-1.87-3.81,15.36-8.36,41.93-3.35,74.3,4.67,30.21,15.7,52.82,23.48,66.12" fill="none" stroke="#263238" stroke-linecap="round" stroke-linejoin="round" stroke-width="10"/><path d="m74.48,377.67c1.58,4.84,4.8,12.57,11.47,20.16,4.85,5.51,9.9,9.11,13.69,11.36,4.2,13.67,8.37,31.71,9.76,53.15,1.46,22.51-.59,41.76-3.21,56.27" fill="none" stroke="#263238" stroke-linecap="round" stroke-linejoin="round" stroke-width="10"/><path d="m254.26,377.67c-1.58,4.84-4.8,12.57-11.47,20.16-4.85,5.51-9.9,9.11-13.69,11.36-4.2,13.67-8.37,31.71-9.76,53.15-1.46,22.51.59,41.76,3.21,56.27" fill="none" stroke="#263238" stroke-linecap="round" stroke-linejoin="round" stroke-width="10"/><path d="m164.37,441.96v131.16h-90.01c-1.85-5.66-6.17-21.2,0-34.38,8.79-18.79,36.37-27.45,64.39-12.5" fill="#fff" stroke="#263238" stroke-linecap="round" stroke-linejoin="round" stroke-width="10"/><path d="m164.37,441.96v131.16h90.01c1.85-5.66,6.17-21.2,0-34.38-8.79-18.79-36.37-27.45-64.39-12.5" fill="#fff" stroke="#263238" stroke-linecap="round" stroke-linejoin="round" stroke-width="10"/></g><g id="Collar"><circle cx="162.74" cy="396.59" r="24.55" fill="#ffb74d" stroke="#263238" stroke-linecap="round" stroke-linejoin="round" stroke-width="10"/><path d="m69.34,282.83h186.81c0,49.2-39.95,89.15-89.15,89.15h-8.51c-49.2,0-89.15-39.95-89.15-89.15h0Z" fill="#1565c0" stroke="#263238" stroke-linecap="round" stroke-linejoin="round" stroke-width="10"/><path d="m165.95,383.13s3.62-.14,5.33.59c.17.07-.42,6.79-.42,7.91,0,.52-5.43.49-5.43.35-.17-2.02-1.36-2.79-2.44-2.79-.63,0-1.92.31-1.92,1.71,0,1.25,2.61,2.02,5.19,3.55,3.1,1.81,5.71,3.66,5.71,7.94,0,3.94-3.41,6.9-6.9,6.9s-4.88-1.36-5.4-1.95c-.07.77-.14,2.16-.17,2.16-.17-.07-5.26-.31-5.26-.31-.07-.77-.07-7.04-.07-8.85,2.37-.52,4.77-.63,5.47-.52.63,2.37,2.06,3.62,3.17,3.62,1.01,0,1.92-.56,1.92-1.6,0-1.99-2.23-2.61-4.32-3.76-3.1-1.64-6.1-3.41-6.1-8.4,0-3.45,2.86-6.27,7.52-6.27,2.02,0,3.27.77,3.87,1.39l.24-1.67Z" fill="#263238"/></g><g id="Head"><path d="m282.78,136.64s0,.01,0,.01c2.89,5.71,5.75,12.02,8.41,18.92,4.54,11.72,7.58,22.67,9.66,32.36-.36-.39-.75-.8-1.19-1.23-.42-.43-.89-.88-1.39-1.33-1.67-1.51-3.73-3.12-6.23-4.58-2.79-1.62-5.41-2.67-7.58-3.36h0c2.47,7.55,4.85,16.57,6.46,26.9h0c.12.81.24,1.61.35,2.4.11.79.22,1.57.31,2.35.1.78.19,1.55.28,2.31.1.87.19,1.72.26,2.56.07.66.13,1.32.18,1.96.07.74.13,1.48.18,2.21.05.73.1,1.45.14,2.16s.08,1.42.11,2.12c.03.69.06,1.38.09,2.06.02.69.04,1.37.05,2.04.02.59.03,1.17.04,1.74.03,2.21,0,4.34-.04,6.36-.17-.18-.35-.37-.54-.57-.15-.17-.32-.34-.5-.51-.85-.87-1.86-1.79-3.02-2.72-.23-.2-.47-.39-.72-.58-1.16-.89-2.46-1.78-3.9-2.62-3.14-1.84-6.07-2.96-8.41-3.65h0c2.74,7.11,6.07,18.25,6.45,32.22.37,13.69-2.22,24.78-4.48,31.95-1.77-3.98-3.72-8.1-5.9-12.32-1.09-2.13-2.19-4.2-3.3-6.2-.23-.44-.47-.86-.72-1.3-6.86,15.55-14.91,26.2-22.38,33.6-2.49,2.47-4.92,4.58-7.21,6.39-1.32,1.03-2.58,1.96-3.8,2.81-20.05,14.02-36.11,12.15-54.22,28.17-.76.67-1.48,1.35-2.14,2.04-10.09,10.28-10.97,22.2-14.33,31.29-.09.24-.21.46-.35.65-.08.09-.16.18-.24.26,0,0-.01,0-.01.01-.08.07-.17.15-.27.21-.19.14-.41.25-.64.32-.02,0-.03.01-.05.01s-.03-.01-.05-.01c-.23-.07-.45-.18-.64-.32-.1-.06-.19-.14-.27-.21,0-.01,0-.01,0-.01-.08-.08-.16-.17-.24-.26-.14-.19-.26-.41-.35-.65-3.36-9.09-4.24-21.01-14.33-31.29-.66-.69-1.38-1.37-2.14-2.04-18.11-16.02-34.17-14.15-54.22-28.17-1.22-.85-2.48-1.78-3.8-2.81-2.29-1.81-4.72-3.92-7.21-6.39-7.47-7.4-15.52-18.05-22.38-33.6-.25.44-.49.86-.72,1.3-1.11,2-2.21,4.07-3.3,6.2-2.18,4.22-4.13,8.34-5.9,12.32-2.26-7.17-4.85-18.26-4.48-31.95.38-13.97,3.71-25.11,6.45-32.21h0c-2.34.68-5.27,1.8-8.41,3.64-1.44.84-2.74,1.73-3.9,2.62-.25.19-.49.38-.72.58-1.16.93-2.17,1.85-3.02,2.72-.18.17-.35.34-.5.51-.19.2-.37.39-.54.57-.05-2.02-.07-4.15-.04-6.36,0-.57.02-1.15.04-1.74,0-.67.03-1.35.05-2.04.03-.68.06-1.37.09-2.06.03-.7.07-1.41.11-2.12s.09-1.43.14-2.16c.05-.73.11-1.47.18-2.21.05-.64.11-1.3.18-1.96.07-.84.16-1.69.26-2.56.09-.76.18-1.53.28-2.31.09-.78.2-1.56.31-2.35.11-.79.23-1.59.35-2.39h0c1.61-10.34,3.99-19.36,6.46-26.9h0c-2.17.68-4.79,1.73-7.58,3.35-2.5,1.46-4.56,3.07-6.23,4.58-.5.45-.97.9-1.39,1.33-.44.43-.83.84-1.19,1.23,2.08-9.69,5.12-20.64,9.66-32.36,2.66-6.9,5.52-13.21,8.41-18.92,0,0,0,0,0-.01-1.48-.95-3.45-2.32-5.64-4.18,0,0-9.49-6.6-13.68-17.34-7.6-19.45,7.38-32.64,3.7-58.37,0,0-1.47-12.33-1.42-25.87,0-2.48.22-5.29.78-8.96.14-.98.3-1.95.49-2.91C28.09,6.42,46.21.38,55.23,9.12c2.56,2.47,5.13,4.48,7.64,6.12.54.35,1.07.68,1.59,1,.22.13.44.26.66.39,0,.01.03.02.04.03.21.12.42.24.63.36.15.08.29.16.43.24.12.06.24.13.35.19.13.07.26.14.39.21.12.06.23.12.35.18,7.99,4.15,12.23,6.27,16.42,8.9h0s.02.02.03.03c2.6,1.95,5.39,3.93,8.39,5.87,6.29,4.87,12.23,11.57,16.75,17.94s7.6,12.41,8.17,15.97c21.12-14.47,75.32-10.63,90.2,0,2.45-4.92,12.34-24.18,24.92-33.91,4.57-3.54,8.43-5.9,8.43-5.9,4.19-2.63,8.43-4.75,16.42-8.9,1.44-.75,2.92-1.61,4.44-2.6,2.51-1.64,5.08-3.65,7.64-6.12,9.02-8.74,27.14-2.7,29.42,9.89.19.96.35,1.93.49,2.91.56,3.67.77,6.48.78,8.96.05,13.54-1.42,25.87-1.42,25.87-3.68,25.73,11.3,38.92,3.7,58.37-4.19,10.74-13.68,17.34-13.68,17.34-2.19,1.86-4.16,3.23-5.64,4.18Z" fill="#546e7a"/><path d="m295.1,230.22l-.87,3.86-.1.44c-1.17-1.28-2.73-2.78-4.69-4.29-1.16-.89-2.46-1.78-3.9-2.62-3.14-1.84-6.07-2.96-8.41-3.65,2.74,7.1,6.07,18.24,6.45,32.22.37,13.69-2.22,24.78-4.48,31.95-1.77-3.98-3.72-8.1-5.9-12.32-1.09-2.13-2.19-4.2-3.3-6.2-.23-.44-.47-.87-.72-1.31-10.45,23.7-23.66,36.02-33.39,42.81-20.05,14.02-36.11,12.15-54.22,28.17-12.12,10.71-12.89,23.63-16.47,33.33-.04.11-.09.22-.14.32-.01.02-.02.04-.03.05-.05.09-.12.18-.18.27-.05.06-.1.12-.16.18-.02.03-.05.05-.08.08-.05.05-.1.1-.16.13-.05.05-.11.09-.17.13-.06.05-.13.09-.2.11-.12.07-.25.13-.38.17-.09.03-.18.06-.28.07-.14.04-.3.05-.45.05-.63,0-1.22-.24-1.65-.65-.09-.09-.17-.17-.25-.27-.15-.19-.27-.4-.35-.64-3.58-9.7-4.35-22.62-16.47-33.33-18.11-16.02-34.17-14.15-54.22-28.17-9.73-6.79-22.94-19.11-33.39-42.81-.25.44-.49.87-.72,1.31-1.11,2-2.21,4.07-3.3,6.2-2.18,4.22-4.13,8.34-5.9,12.32-2.26-7.17-4.85-18.26-4.48-31.95.38-13.98,3.71-25.12,6.45-32.22-2.34.69-5.27,1.81-8.41,3.65-1.44.84-2.74,1.73-3.9,2.62-1.96,1.51-3.52,3.01-4.7,4.29l-.09-.4-.88-3.89c0-5.68.57-11.21,1.66-16.56,11.71-57.97,83.15-95.39,130.6-73.04,46.1-25.29,118.88,14.67,130.6,73.3,1.07,5.29,1.63,10.73,1.63,16.29Z" fill="#fff"/><path d="m163.3,245.58v-76.48" fill="none" stroke="#263238" stroke-linecap="round" stroke-linejoin="round" stroke-width="10"/><path d="m190.72,281.34c-2.56,1.15-6.5,2.67-11.98,3.95-.06.01-.12.03-.19.04-9.72,2.26-21.39,2.26-31.11,0-.06-.01-.12-.03-.19-.04-5.48-1.29-9.42-2.8-11.98-3.95" fill="none" stroke="#263238" stroke-linecap="round" stroke-linejoin="round" stroke-width="5"/><path d="m119.3,192.64c-1.1.5-2.8,1.15-5.15,1.7-.03,0-.05.01-.08.02-4.18.97-9.2.97-13.38,0-.03,0-.05-.01-.08-.02-2.36-.55-4.05-1.2-5.15-1.7" fill="none" stroke="#263238" stroke-linecap="round" stroke-linejoin="round" stroke-width="5"/><path d="m231.15,192.64c-1.1.5-2.8,1.15-5.15,1.7-.03,0-.05.01-.08.02-4.18.97-9.2.97-13.38,0-.03,0-.05-.01-.08-.02-2.36-.55-4.05-1.2-5.15-1.7" fill="none" stroke="#263238" stroke-linecap="round" stroke-linejoin="round" stroke-width="5"/><path d="m88.75,171.14c4.77,4.77,11.35,7.71,18.62,7.71s13.86-2.95,18.62-7.71" fill="none" stroke="#263238" stroke-linecap="round" stroke-linejoin="round" stroke-width="10"/><path d="m200.61,171.14c4.77,4.77,11.35,7.71,18.62,7.71s13.86-2.95,18.62-7.71" fill="none" stroke="#263238" stroke-linecap="round" stroke-linejoin="round" stroke-width="10"/><path d="m142.96,119.95c-2.32-2.03-24.18-20.5-52.43-12.9-19.81,5.33-30.68,20.23-33.65,24.6,2.25.72,4.5,1.43,6.75,2.15-1.82,6.63-3.64,13.27-5.45,19.9,5.9-6.83,16.25-17.04,31.72-24.62,22.83-11.19,43.66-10.2,53.06-9.13Z" fill="#fff"/><path d="m183.65,119.95c2.32-2.03,24.18-20.5,52.43-12.9,19.81,5.33,30.68,20.23,33.65,24.6-2.25.72-4.5,1.43-6.75,2.15,1.82,6.63,3.64,13.27,5.45,19.9-5.9-6.83-16.25-17.04-31.72-24.62-22.83-11.19-43.66-10.2-53.06-9.13Z" fill="#fff"/><path d="m130.64,206.62c-16.63,1.43-33.26,1.43-49.89.02-4.39-.4-9-4.19-10.56-8.73-4.2-12.7-6.69-25.11-6.4-37.15.17-5.03,5.78-10.2,10.84-10.52,20.42-1.08,41.35.29,62.69,3.34,5.5.85,10.92,6.22,10.73,11.42-.43,10.76-2.69,20.86-6.9,33.01-1.6,4.49-6.18,8.21-10.52,8.61Z" fill="#fff" opacity=".3"/><path d="m196.21,206.62c16.63,1.43,33.26,1.43,49.89.02,4.39-.4,9-4.19,10.56-8.73,4.2-12.7,6.69-25.11,6.4-37.15-.17-5.03-5.78-10.2-10.84-10.52-20.42-1.08-41.35.29-62.69,3.34-5.5.85-10.92,6.22-10.73,11.42.43,10.72,3,21.74,6.9,33.01,1.6,4.49,6.18,8.21,10.52,8.61Z" fill="#fff" opacity=".3"/><path d="m148.08,165.02c10.23-3.75,20.46-3.75,30.69,0" fill="none" stroke="#263238" stroke-miterlimit="10" stroke-width="10"/><path d="m130.64,206.62c-16.63,1.43-33.26,1.43-49.89.02-4.39-.4-9-4.19-10.56-8.73-4.2-12.7-6.69-25.11-6.4-37.15.17-5.03,5.78-10.2,10.84-10.52,20.42-1.08,41.35.29,62.69,3.34,5.5.85,10.92,6.22,10.73,11.42-.43,10.76-2.69,20.86-6.9,33.01-1.6,4.49-6.18,8.21-10.52,8.61Z" fill="none" stroke="#263238" stroke-miterlimit="10" stroke-width="10"/><path d="m196.21,206.62c16.63,1.43,33.26,1.43,49.89.02,4.39-.4,9-4.19,10.56-8.73,4.2-12.7,6.69-25.11,6.4-37.15-.17-5.03-5.78-10.2-10.84-10.52-20.42-1.08-41.35.29-62.69,3.34-5.5.85-10.92,6.22-10.73,11.42.43,10.72,3,21.74,6.9,33.01,1.6,4.49,6.18,8.21,10.52,8.61Z" fill="none" stroke="#263238" stroke-miterlimit="10" stroke-width="10"/><line x1="63.8" y1="160.76" x2="34.36" y2="160.76" fill="none" stroke="#263238" stroke-linecap="round" stroke-linejoin="round" stroke-width="10"/><line x1="292.49" y1="160.76" x2="263.05" y2="160.76" fill="none" stroke="#263238" stroke-linecap="round" stroke-linejoin="round" stroke-width="10"/><path d="m118.21,66.55c-1.57.92-3.2,1.95-4.87,3.1-2.11,1.45-4.03,2.91-5.76,4.32" fill="none" stroke="#263238" stroke-linecap="round" stroke-linejoin="round" stroke-width="10"/><path d="m208.4,66.55c1.57.92,3.2,1.95,4.87,3.1,2.11,1.45,4.03,2.91,5.76,4.32" fill="none" stroke="#263238" stroke-linecap="round" stroke-linejoin="round" stroke-width="10"/><path d="m49.62,34.95c6.74,3.49,19.08,10.45,29.29,20.08,4.35,4.09,6.97,7.28,8.84,10.36,2.98,4.92,4.9,9.65,6.18,13.72-3.47-.37-8.69-.51-14.79.9-7.1,1.65-12.29,4.68-15.33,6.78,1.3.4,3.64,1.3,5.89,3.33,2.12,1.91,3.22,3.96,3.76,5.18-4.29,3.18-9.56,7.77-14.59,14.11-.61.78-1.2,1.55-1.76,2.31-2.66,3.61-4.7,7.07-6.29,10.12-1.77-3.29-3.9-8.34-4.13-14.59-.5-13.6,8.49-20.68,11.96-31.59,2.7-8.51,2.71-21.4-9.02-40.71Z" fill="#fff"/><path d="m49.62,34.95c6.74,3.49,19.08,10.45,29.29,20.08,4.35,4.09,6.97,7.28,8.84,10.36,2.98,4.92,4.9,9.65,6.18,13.72-3.47-.37-8.69-.51-14.79.9-7.1,1.65-12.29,4.68-15.33,6.78,1.3.4,3.64,1.3,5.89,3.33,2.12,1.91,3.22,3.96,3.76,5.18-4.29,3.18-9.56,7.77-14.59,14.11-.9,1.14-1.76,2.31-1.76,2.31-2.93,4-4.96,7.56-6.29,10.12" fill="none" stroke="#263238" stroke-linecap="round" stroke-linejoin="round" stroke-width="10"/><path d="m276.98,34.95c-6.74,3.49-19.08,10.45-29.29,20.08-4.35,4.09-6.97,7.28-8.84,10.36-2.98,4.92-4.9,9.65-6.18,13.72,3.47-.37,8.69-.51,14.79.9,7.1,1.65,12.29,4.68,15.33,6.78-1.3.4-3.64,1.3-5.89,3.33-2.12,1.91-3.22,3.96-3.76,5.18,4.29,3.18,9.56,7.77,14.59,14.11.61.78,1.2,1.55,1.76,2.31,2.66,3.61,4.7,7.07,6.29,10.12,1.77-3.29,3.9-8.34,4.13-14.59.5-13.6-8.49-20.68-11.96-31.59-2.7-8.51-2.71-21.4,9.02-40.71Z" fill="#fff"/><path d="m276.98,34.95c-6.74,3.49-19.08,10.45-29.29,20.08-4.35,4.09-6.97,7.28-8.84,10.36-2.98,4.92-4.9,9.65-6.18,13.72,3.47-.37,8.69-.51,14.79.9,7.1,1.65,12.29,4.68,15.33,6.78-1.3.4-3.64,1.3-5.89,3.33-2.12,1.91-3.22,3.96-3.76,5.18,4.29,3.18,9.56,7.77,14.59,14.11.9,1.14,1.76,2.31,1.76,2.31,2.93,4,4.96,7.56,6.29,10.12" fill="none" stroke="#263238" stroke-linecap="round" stroke-linejoin="round" stroke-width="10"/><path d="m283.9,136.64s0,.01,0,.01c2.89,5.71,5.75,12.02,8.41,18.92,4.54,11.72,7.58,22.67,9.66,32.36-.36-.39-.75-.8-1.19-1.23-.42-.43-.89-.88-1.39-1.33-1.67-1.51-3.73-3.12-6.23-4.58-2.79-1.62-5.41-2.67-7.58-3.36h0c2.47,7.55,4.85,16.57,6.46,26.9h0c.12.81.24,1.61.35,2.4.11.79.22,1.57.31,2.35.1.78.19,1.55.28,2.31.1.87.19,1.72.26,2.56.07.66.13,1.32.18,1.96.07.74.13,1.48.18,2.21.05.73.1,1.45.14,2.16s.08,1.42.11,2.12c.03.69.06,1.38.09,2.06.02.69.04,1.37.05,2.04.02.59.03,1.17.04,1.74.03,2.21,0,4.34-.04,6.36-.17-.18-.35-.37-.54-.57-.15-.17-.32-.34-.5-.51-.85-.87-1.86-1.79-3.02-2.72-.23-.2-.47-.39-.72-.58-1.16-.89-2.46-1.78-3.9-2.62-3.14-1.84-6.07-2.96-8.41-3.65h0c2.74,7.11,6.07,18.25,6.45,32.22.37,13.69-2.22,24.78-4.48,31.95-1.77-3.98-3.72-8.1-5.9-12.32-1.09-2.13-2.19-4.2-3.3-6.2-.23-.44-.47-.86-.72-1.3-6.86,15.55-14.91,26.2-22.38,33.6-2.49,2.47-4.92,4.58-7.21,6.39-1.32,1.03-2.58,1.96-3.8,2.81-20.05,14.02-36.11,12.15-54.22,28.17-.76.67-1.48,1.35-2.14,2.04-10.09,10.28-10.97,22.2-14.33,31.29-.09.24-.21.46-.35.65-.08.09-.16.18-.24.26,0,0-.01,0-.01.01-.08.07-.17.15-.27.21-.19.14-.41.25-.64.32-.02,0-.03.01-.05.01s-.03-.01-.05-.01c-.23-.07-.45-.18-.64-.32-.1-.06-.19-.14-.27-.21,0-.01,0-.01,0-.01-.08-.08-.16-.17-.24-.26-.14-.19-.26-.41-.35-.65-3.36-9.09-4.24-21.01-14.33-31.29-.66-.69-1.38-1.37-2.14-2.04-18.11-16.02-34.17-14.15-54.22-28.17-1.22-.85-2.48-1.78-3.8-2.81-2.29-1.81-4.72-3.92-7.21-6.39-7.47-7.4-15.52-18.05-22.38-33.6-.25.44-.49.86-.72,1.3-1.11,2-2.21,4.07-3.3,6.2-2.18,4.22-4.13,8.34-5.9,12.32-2.26-7.17-4.85-18.26-4.48-31.95.38-13.97,3.71-25.11,6.45-32.21h0c-2.34.68-5.27,1.8-8.41,3.64-1.44.84-2.74,1.73-3.9,2.62-.25.19-.49.38-.72.58-1.16.93-2.17,1.85-3.02,2.72-.18.17-.35.34-.5.51-.19.2-.37.39-.54.57-.05-2.02-.07-4.15-.04-6.36,0-.57.02-1.15.04-1.74,0-.67.03-1.35.05-2.04.03-.68.06-1.37.09-2.06.03-.7.07-1.41.11-2.12s.09-1.43.14-2.16c.05-.73.11-1.47.18-2.21.05-.64.11-1.3.18-1.96.07-.84.16-1.69.26-2.56.09-.76.18-1.53.28-2.31.09-.78.2-1.56.31-2.35.11-.79.23-1.59.35-2.39h0c1.61-10.34,3.99-19.36,6.46-26.9h0c-2.17.68-4.79,1.73-7.58,3.35-2.5,1.46-4.56,3.07-6.23,4.58-.5.45-.97.9-1.39,1.33-.44.43-.83.84-1.19,1.23,2.08-9.69,5.12-20.64,9.66-32.36,2.66-6.9,5.52-13.21,8.41-18.92,0,0,0,0,0-.01-1.48-.95-3.45-2.32-5.64-4.18,0,0-9.49-6.6-13.68-17.34-7.6-19.45,7.38-32.64,3.7-58.37,0,0-1.47-12.33-1.42-25.87,0-2.48.22-5.29.78-8.96.14-.98.3-1.95.49-2.91C29.21,6.42,47.34.38,56.36,9.12c2.56,2.47,5.13,4.48,7.64,6.12.54.35,1.07.68,1.59,1,.22.13.44.26.66.39,0,.01.03.02.04.03.21.12.42.24.63.36.15.08.29.16.43.24.12.06.24.13.35.19.13.07.26.14.39.21.12.06.23.12.35.18,7.99,4.15,12.23,6.27,16.42,8.9h0s.02.02.03.03c.44.27,4.1,2.55,8.39,5.87,6.29,4.87,12.23,11.57,16.75,17.94s7.6,12.41,8.17,15.97c21.12-14.47,75.32-10.63,90.2,0,2.45-4.92,12.34-24.18,24.92-33.91,4.57-3.54,8.43-5.9,8.43-5.9,4.19-2.63,8.43-4.75,16.42-8.9,1.44-.75,2.92-1.61,4.44-2.6,2.51-1.64,5.08-3.65,7.64-6.12,9.02-8.74,27.14-2.7,29.42,9.89.19.96.35,1.93.49,2.91.56,3.67.77,6.48.78,8.96.05,13.54-1.42,25.87-1.42,25.87-3.68,25.73,11.3,38.92,3.7,58.37-4.19,10.74-13.68,17.34-13.68,17.34-2.19,1.86-4.16,3.23-5.64,4.18Z" fill="none" stroke="#263238" stroke-linecap="round" stroke-linejoin="round" stroke-width="10"/><path d="m188.41,183.17c0,11.77-11.24,21.32-25.11,21.32s-25.11-9.54-25.11-21.32c0-8.26,12.35-15.42,19.73-18.96,3.4-1.63,7.36-1.63,10.76,0,7.38,3.54,19.73,10.7,19.73,18.96Z" fill="#263238" stroke="#263238" stroke-linecap="round" stroke-linejoin="round" stroke-width="10"/><path d="m163.3,245.58c-4.75,1.07-16.78,0-29.33,2.51-14.04,2.81-29.46-1.6-35.74-7.42-3.14-2.91-4.91-7.22-4.91-11.84" fill="none" stroke="#263238" stroke-linecap="round" stroke-linejoin="round" stroke-width="10"/><path d="m163.3,245.58c4.75,1.07,16.78,0,29.33,2.51,14.04,2.81,29.46-1.6,35.74-7.42,3.14-2.91,4.91-7.22,4.91-11.84" fill="none" stroke="#263238" stroke-linecap="round" stroke-linejoin="round" stroke-width="10"/></g></svg>