<?xml version="1.0" encoding="UTF-8"?><svg xmlns="http://www.w3.org/2000/svg" width="380.48" height="594.69" viewBox="0 0 380.48 594.69"><g id="Tail"><path d="m249.57,510.72c-4.48-39.13,4.78-60.96,14.77-73.84,8.28-10.67,18.03-16.46,28.52-33.61,9.2-15.05,13.27-29.55,15.28-39.72,2.36,2.01,7.15,6.66,9.67,14.26,1.67,5.01,1.72,9.42,1.53,12.22,2.85-2.58,7.93-7.97,10.18-16.29,4.86-17.94-7.96-32.77-9.17-34.12,8.94,4.43,31.58,17.15,44.81,43.79,15.02,30.25,16.05,74.68-13.24,105.92-25.68,27.38-66.58,36-102.35,21.39Z" fill="#b9937e" stroke="#263238" stroke-linecap="round" stroke-linejoin="round" stroke-width="10"/><path d="m249.31,509.77c1.57-11.68,6.12-33.63,21.58-56.05,12.57-18.24,27.18-29.3,36.55-35.3-.93,3.37-1.89,8.62-1.02,14.89.41,2.99,1.15,5.57,1.92,7.67,5.82-2.53,13.12-6.44,20.53-12.57,13.54-11.19,20.56-24.06,24.01-31.82,5.2,12.38,9.93,30.49,4.73,49.62-10.08,37.03-53.86,64.64-108.28,63.56Z" fill="#fff"/></g><g id="Body"><path d="m253.67,548.3c10.44-40.3,6.85-72.14-7.93-79.41-2.93-1.44-7.34-2.43-13.97-.77H44.49c-6.63-1.66-11.04-.68-13.97.77-14.78,7.27-18.36,39.12-7.93,79.41" fill="#fff" stroke="#263238" stroke-linecap="round" stroke-linejoin="round" stroke-width="10"/><path d="m231.3,539.72c14.4-8.14,30.51-3.18,36.94,8.75,6.52,12.08.5,26.46,0,27.62-21.75.31-43.51.61-65.26.92H73.28c-21.75-.31-43.51-.61-65.26-.92-.5-1.16-6.52-15.54,0-27.62,6.44-11.92,22.54-16.88,36.94-8.75" fill="#fff" stroke="#263238" stroke-linecap="round" stroke-linejoin="round" stroke-width="10"/><path d="m216.54,537.82c5.84-9.98,14.12-26.95,17.62-49.62,3.76-24.29.34-44.23-2.52-55.76,1.95.15,4.37.53,7.05,1.41,1.63.54,3.06,1.17,4.28,1.79-1.66-4.31-4.55-10.38-9.57-16.62-4.91-6.11-10.08-10.15-13.84-12.66,2.08-.16,4.7-.18,7.68.26,2.45.36,4.57.94,6.29,1.53-2.75-3.17-7.02-7.4-13.09-11.13-5.51-3.39-10.66-5.23-14.47-6.27H70.29c-3.82,1.04-8.96,2.88-14.47,6.27-6.07,3.73-10.34,7.95-13.09,11.13,1.72-.6,3.84-1.18,6.29-1.53,2.98-.44,5.6-.42,7.68-.26-3.77,2.51-8.93,6.55-13.84,12.66-5.02,6.24-7.91,12.32-9.57,16.62,1.22-.62,2.64-1.25,4.28-1.79,2.68-.88,5.1-1.26,7.05-1.41-2.86,11.53-6.27,31.46-2.52,55.76,3.5,22.67,11.78,39.64,17.62,49.62" fill="#fff" stroke="#263238" stroke-linecap="round" stroke-linejoin="round" stroke-width="10"/><path d="m59.72,537.81c-2.92-4.99-6.45-11.73-9.69-20.04-3.24-8.33-6.18-18.24-7.93-29.57-1.88-12.14-1.96-23.2-1.22-32.66.73-9.46,2.31-17.33,3.73-23.1-.97.08-2.06.2-3.25.43-1.18.23-2.46.54-3.8.98-.81.27-1.58.56-2.29.86-.72.31-1.37.62-1.99.93.83-2.16,1.97-4.75,3.53-7.58,1.55-2.84,3.53-5.91,6.04-9.03,2.45-3.06,4.98-5.6,7.35-7.69,2.38-2.09,4.61-3.72,6.49-4.98-1.04-.09-2.22-.13-3.5-.09-1.29.03-2.68.13-4.18.35-1.23.18-2.37.42-3.42.68s-2.01.55-2.87.85c1.37-1.59,3.13-3.43,5.3-5.35,2.16-1.92,4.76-3.91,7.79-5.77,2.75-1.7,5.42-3,7.87-4.01,2.45-1.01,4.69-1.74,6.6-2.26h19.24c-9.25,9.95-22.76,27.22-31.07,52.05-14.62,43.69-3.38,81.68,1.26,95.01Z" fill="#b9937e"/><path d="m216.53,537.81c2.92-4.99,6.45-11.73,9.69-20.04,3.24-8.33,6.18-18.24,7.93-29.57,1.88-12.14,1.96-23.2,1.22-32.66-.73-9.46-2.31-17.33-3.73-23.1.97.08,2.06.2,3.25.43,1.18.23,2.46.54,3.8.98.81.27,1.58.56,2.29.86.72.31,1.37.62,1.99.93-.83-2.16-1.97-4.75-3.53-7.58-1.55-2.84-3.53-5.91-6.04-9.03-2.45-3.06-4.98-5.6-7.35-7.69-2.38-2.09-4.61-3.72-6.49-4.98,1.04-.09,2.22-.13,3.5-.09,1.29.03,2.68.13,4.18.35,1.23.18,2.37.42,3.42.68s2.01.55,2.87.85c-1.37-1.59-3.13-3.43-5.3-5.35-2.16-1.92-4.76-3.91-7.79-5.77-2.75-1.7-5.42-3-7.87-4.01-2.45-1.01-4.69-1.74-6.6-2.26h-19.24c9.25,9.95,22.76,27.22,31.07,52.05,14.62,43.69,3.38,81.68-1.26,95.01Z" fill="#b9937e"/><path d="m216.54,537.82c5.84-9.98,14.12-26.95,17.62-49.62,3.76-24.29.34-44.23-2.52-55.76,1.95.15,4.37.53,7.05,1.41,1.63.54,3.06,1.17,4.28,1.79-1.66-4.31-4.55-10.38-9.57-16.62-4.91-6.11-10.08-10.15-13.84-12.66,2.08-.16,4.7-.18,7.68.26,2.45.36,4.57.94,6.29,1.53-2.75-3.17-7.02-7.4-13.09-11.13-5.51-3.39-10.66-5.23-14.47-6.27H70.29c-3.82,1.04-8.96,2.88-14.47,6.27-6.07,3.73-10.34,7.95-13.09,11.13,1.72-.6,3.84-1.18,6.29-1.53,2.98-.44,5.6-.42,7.68-.26-3.77,2.51-8.93,6.55-13.84,12.66-5.02,6.24-7.91,12.32-9.57,16.62,1.22-.62,2.64-1.25,4.28-1.79,2.68-.88,5.1-1.26,7.05-1.41-2.86,11.53-6.27,31.46-2.52,55.76,3.5,22.67,11.78,39.64,17.62,49.62" fill="none" stroke="#263238" stroke-linecap="round" stroke-linejoin="round" stroke-width="10"/><path d="m72.05,432.77c.84,3.73,2.72,9.73,7.17,15.86,3.24,4.45,6.77,7.49,9.44,9.44,2.72,8.74,5.46,20.88,5.66,35.49.28,20.36-4.5,36.64-8.37,46.73" fill="none" stroke="#263238" stroke-linecap="round" stroke-linejoin="round" stroke-width="10"/><path d="m138.13,457.68v132.01H56.33c-1.68-5.14-5.6-19.26,0-31.24,7.99-17.07,33.05-24.94,58.51-11.36" fill="#fff" stroke="#263238" stroke-linecap="round" stroke-linejoin="round" stroke-width="10"/><path d="m138.13,457.68v132.01h81.8c1.68-5.14,5.6-19.26,0-31.24-7.99-17.07-33.05-24.94-58.51-11.36" fill="none" stroke="#263238" stroke-linecap="round" stroke-linejoin="round" stroke-width="10"/><path d="m204.2,432.77c-.84,3.73-2.72,9.73-7.17,15.86-3.24,4.45-6.77,7.49-9.44,9.44-2.72,8.74-5.46,20.88-5.66,35.49-.28,20.36,4.5,36.64,8.37,46.73" fill="none" stroke="#263238" stroke-linecap="round" stroke-linejoin="round" stroke-width="10"/><path d="m138.13,457.68v132.01h81.8c1.68-5.14,5.6-19.26,0-31.24-7.99-17.07-33.05-24.94-58.51-11.36" fill="#fff" stroke="#263238" stroke-linecap="round" stroke-linejoin="round" stroke-width="10"/></g><g id="Collar"><circle cx="137.73" cy="468.87" r="24.55" fill="#ffb74d" stroke="#263238" stroke-linecap="round" stroke-linejoin="round" stroke-width="10"/><path d="m59.66,369.84h156.14c0,41.13-33.39,74.51-74.51,74.51h-7.12c-41.13,0-74.51-33.39-74.51-74.51h0Z" fill="#ef5350" stroke="#263238" stroke-linecap="round" stroke-linejoin="round" stroke-width="10"/><path d="m125.97,476.48c.14-.14,2.51-.35,2.51-.35l-.49-14.39s-2.02.07-2.19-.1c-.17-.17.14-5.09.14-5.09l10.07.17.24,4.95-2.44.24.17,3.83,6.72.31-.07-4.28s-2.02-.21-2.06-.21-.45-2.68-.35-4.77c3.48-1.04,11.46.1,11.46.1,0,0-.1,4.77-.17,4.77s-2.58.42-2.58.42l.45,13.76,2.4.28v4.98s-10.8.14-10.8.07-.1-5.09-.1-5.09l2.44-.24-.1-4.6-7.07-.21s-.07,5.09.1,5.09,2.33-.14,2.33.1.49,4.6.31,4.67c-.17.07-10.49.38-10.87-.17-.38-.56-.21-4.11-.07-4.25Z" fill="#263238"/></g><g id="Head"><path d="m265.54,305.02c-2.17-1.91-4.29-3.3-6.08-4.28.86,7.07,1.38,15.44.99,24.82-.43,10.4-1.87,19.52-3.54,27.01-.84-1.36-1.96-2.99-3.47-4.7-.86-.99-1.85-1.99-2.97-2.99-2.45-2.17-4.83-3.67-6.77-4.68,1.17,6.73,2.16,17.13.06,29.51-2.05,12.12-6.27,21.44-9.51,27.37-.86-3.81-1.87-7.79-3.04-11.89-.73-2.52-1.47-4.96-2.24-7.31-13.34,19.06-27.14,27.61-36.88,31.9-20.13,8.86-33.94,4.41-52.7,15.37-12.54,7.33-20.46,17.58-25.31,25.51-.35.57-.94.93-1.58,1.01-.21.03-.44.02-.66-.03-.89-.18-1.57-.88-1.71-1.76-1.46-9.18-4.89-21.68-13.7-33.23-13.17-17.28-27.64-18.42-42.87-34.27-7.39-7.68-16.89-20.84-21.96-43.54-.29.34-.58.68-.86,1.03-1.33,1.57-2.66,3.2-3.99,4.88-2.65,3.34-5.09,6.64-7.34,9.83-.75-6.72-1.1-16.94,1.62-28.93,2.77-12.26,7.65-21.49,11.29-27.27-2.18.2-4.95.67-8.04,1.75-1.42.49-2.72,1.05-3.89,1.64-2.03,1.01-3.7,2.08-4.98,3.02,1.31-7.57,3.44-16.55,7-26.33,3.21-8.83,6.89-16.37,10.37-22.58-2.03.22-4.52.7-7.26,1.64-3.94,1.37-6.95,3.24-9.01,4.75,3.52-8.17,8.11-17.29,14.15-26.83,3.55-5.61,7.17-10.68,10.7-15.21-2.31-6.81-5.04-17.81-3.17-30.65,3.24-22.29,17.15-28.15,37.11-63.09,11.64-20.39,9.92-23.66,20.06-37.22.71-.95,1.42-1.86,2.14-2.77,9.38-11.85,28.29-6.83,30.75,8.09,1.13,6.78,3.01,12.32,5.07,16.82,6.93,15.13,8.74,18.63,12.29,31.3,1.53,5.45,3.1,13.32,2.94,23.48.74,0,1.5,0,2.29.01.07,0,.14,0,.21,0,10.58.19,22.84,2.62,32.7,6.47.06.02.12.05.19.07.65.26,1.29.52,1.9.77,4.15-9.29,8.79-15.95,12.37-20.4,8.48-10.54,11.41-13.19,23.28-24.26,3.62-3.38,7.46-7.78,11.09-13.63,7.96-12.86,27.35-10.31,31.52,4.23.31,1.11.62,2.23.91,3.38,4.23,16.4,1.38,18.77,4.38,42.05,5.16,39.91,15.79,50.62,10.31,72.47-3.16,12.59-9.87,21.72-14.6,27.14,1.54,5.53,2.95,11.59,4.11,18.14,1.95,11.12,2.73,21.29,2.86,30.19-1.32-2.18-3.4-5.06-6.52-7.82Z" fill="#b9937e" stroke="#263238" stroke-linecap="round" stroke-linejoin="round" stroke-width="10"/><path d="m101.82,109.17c6.64,8.62,11.13,16.42,14.09,22.24,2.6,5.11,5,9.47,6.47,15.85,1.63,7.06,2.09,13.49,2.04,18.88-3.96-1.76-10.08-3.93-17.83-4.56-9.02-.72-16.32.94-20.73,2.32,1.39.98,3.8,2.95,5.69,6.26,1.77,3.1,2.29,6,2.46,7.67-6.29,2.2-14.28,5.71-22.66,11.43-1.02.7-2.02,1.41-2.97,2.11-4.53,3.34-8.27,6.72-11.32,9.79-.83-4.64-1.41-11.53.71-19.15,4.25-15.23,15.88-20.97,26.25-33.49,6.42-7.74,13.95-20,17.79-39.35Z" fill="#fff"/><path d="m250.47,344.9c-2.45-2.17-4.83-3.67-6.77-4.68,1.17,6.73,2.16,17.13.06,29.51-2.05,12.12-6.27,21.44-9.51,27.37-.86-3.81-1.87-7.79-3.04-11.89-.73-2.52-1.47-4.96-2.24-7.31-13.34,19.06-27.14,27.61-36.88,31.9-20.13,8.86-33.94,4.41-52.7,15.37-12.54,7.33-20.46,17.58-25.31,25.51-.35.57-.94.93-1.58,1.01-.21.03-.44.02-.66-.03-.89-.18-1.57-.88-1.71-1.76-1.46-9.18-4.89-21.68-13.7-33.23-13.17-17.28-27.64-18.42-42.87-34.27-7.39-7.68-16.89-20.84-21.96-43.54-.29.34-.58.68-.86,1.03-1.33,1.57-2.66,3.2-3.99,4.88-2.65,3.34-5.09,6.64-7.34,9.83-.75-6.72-1.1-16.94,1.62-28.93,2.77-12.26,7.65-21.49,11.29-27.27-2.18.2-4.95.67-8.04,1.75-1.42.49-2.72,1.05-3.89,1.64,11.67-59.14,90.74-86.44,132.15-55.91,49.09-15.53,112.61,42.8,100.91,101.99-.86-.99-1.85-1.99-2.97-2.99Z" fill="#fff"/><path d="m101.82,109.17c6.08,8.14,10.73,15.77,14.09,22.24,3.57,6.88,5.68,12.43,6.47,15.85,1.63,7.06,2.09,13.49,2.04,18.88-3.96-1.76-10.08-3.93-17.83-4.56-9.02-.72-16.32.94-20.73,2.32,1.39.98,3.8,2.95,5.69,6.26,1.77,3.1,2.29,6,2.46,7.67-6.29,2.2-14.28,5.71-22.66,11.43-1.02.7-2.02,1.41-2.97,2.11-4.53,3.34-8.27,6.72-11.32,9.79" fill="none" stroke="#263238" stroke-linecap="round" stroke-linejoin="round" stroke-width="10"/><path d="m185.82,173.55c4.55,1.89,7.85,3.63,10.06,4.93" fill="none" stroke="#263238" stroke-linecap="round" stroke-linejoin="round" stroke-width="10"/><path d="m148.54,166.23c-4.93.02-8.64.37-11.18.73" fill="none" stroke="#263238" stroke-linecap="round" stroke-linejoin="round" stroke-width="10"/><path d="m132.98,361.53c5.16-36.85,7.21-51.53,12.37-88.38" fill="none" stroke="#263238" stroke-linecap="round" stroke-linejoin="round" stroke-width="10"/><path d="m153.23,394.47c-2.42.71-6.12,1.56-11.15,2.02-.06,0-.11.01-.17.02-8.93.8-19.31-.66-27.67-3.87-.05-.02-.11-.04-.16-.06-4.72-1.83-8.03-3.66-10.17-5.01" fill="none" stroke="#263238" stroke-linecap="round" stroke-linejoin="round" stroke-width="5"/><circle cx="199.7" cy="283.99" r="8.5" fill="#263238"/><circle cx="90.11" cy="268.65" r="8.5" fill="#263238"/><path d="m172.68,289.72c-1.91,13.64-16.48,22.87-32.54,20.62-16.06-2.25-27.53-15.13-25.63-28.76,1.34-9.56,16.8-15.85,25.92-18.76,4.21-1.34,8.79-.7,12.47,1.75,7.97,5.3,21.11,15.59,19.77,25.16Z" fill="#263238" stroke="#263238" stroke-linecap="round" stroke-linejoin="round" stroke-width="10"/><path d="m265.64,304.53c-2.17-1.91-4.29-3.3-6.08-4.28.86,7.07,1.38,15.44.99,24.82-.43,10.4-1.87,19.52-3.54,27.01-1.31-2.14-3.36-4.96-6.44-7.68-2.45-2.17-4.83-3.67-6.77-4.68,1.17,6.73,2.16,17.13.06,29.51-2.05,12.12-6.27,21.44-9.51,27.37-.86-3.81-1.87-7.79-3.04-11.89-.73-2.52-1.47-4.96-2.24-7.31-13.34,19.06-27.14,27.61-36.88,31.9-20.13,8.86-33.94,4.41-52.7,15.37-12.55,7.33-20.46,17.59-25.31,25.51-.47.77-1.37,1.15-2.25.98h0c-.88-.17-1.57-.88-1.71-1.76-1.46-9.18-4.88-21.67-13.7-33.23-13.17-17.28-27.64-18.42-42.87-34.27-7.39-7.68-16.89-20.84-21.96-43.54-1.61,1.89-3.23,3.86-4.85,5.91-2.65,3.34-5.09,6.64-7.34,9.83-.75-6.72-1.1-16.94,1.62-28.93,2.77-12.26,7.65-21.49,11.29-27.27-2.18.2-4.95.67-8.04,1.75-3.88,1.35-6.85,3.18-8.87,4.66,1.31-7.57,3.44-16.55,7-26.33,3.21-8.83,6.89-16.37,10.37-22.58-2.03.23-4.52.7-7.26,1.64-3.94,1.37-6.95,3.24-9.01,4.75,3.52-8.17,8.11-17.29,14.15-26.83,3.55-5.61,7.17-10.68,10.7-15.21-2.31-6.81-5.04-17.81-3.17-30.65,3.24-22.29,17.15-28.15,37.11-63.09,11.64-20.39,9.92-23.66,20.06-37.22.71-.95,1.42-1.86,2.14-2.77,9.38-11.85,28.29-6.83,30.75,8.09,1.13,6.78,3.01,12.32,5.07,16.82,6.93,15.13,8.74,18.63,12.29,31.3,1.53,5.45,3.1,13.32,2.94,23.48.74,0,1.5,0,2.29,0,.07,0,.14,0,.21,0,10.58.19,22.84,2.62,32.7,6.47.06.02.12.05.19.07.65.26,1.29.52,1.9.77,4.15-9.29,8.79-15.95,12.37-20.4,8.48-10.54,11.41-13.19,23.28-24.26,3.62-3.38,7.46-7.78,11.09-13.63,7.96-12.85,27.35-10.31,31.52,4.23.31,1.11.62,2.23.91,3.38,4.23,16.4,1.38,18.77,4.38,42.05,5.16,39.9,15.79,50.62,10.31,72.47-3.16,12.59-9.87,21.72-14.6,27.14,1.54,5.53,2.95,11.59,4.11,18.14,1.95,11.12,2.73,21.29,2.86,30.19-1.32-2.18-3.4-5.06-6.52-7.82Z" fill="none" stroke="#263238" stroke-linecap="round" stroke-linejoin="round" stroke-width="10"/><path d="m251.47,138.77c-9.42,5.44-16.54,10.94-21.49,15.2-4.35,3.74-8.23,6.86-12.02,12.19-4.2,5.91-7.07,11.68-9.08,16.68,4.33-.12,10.82.2,18.22,2.57,8.62,2.76,14.73,7.08,18.28,10.04-1.66.38-4.64,1.28-7.64,3.62-2.82,2.2-4.4,4.67-5.2,6.16,4.98,4.43,11.03,10.71,16.6,19.19.68,1.04,1.33,2.07,1.94,3.09,2.91,4.81,5.09,9.36,6.74,13.37,2.53-3.98,5.7-10.13,6.63-17.98,1.87-15.7-6.7-25.44-11.53-40.96-2.99-9.6-5.29-23.81-1.47-43.16Z" fill="#fff"/><path d="m251.47,138.77c-8.72,5.21-15.92,10.5-21.49,15.2-5.92,5-9.99,9.33-12.02,12.19-4.2,5.91-7.07,11.68-9.08,16.68,4.33-.12,10.82.2,18.22,2.57,8.62,2.76,14.73,7.08,18.28,10.04-1.66.38-4.64,1.28-7.64,3.62-2.82,2.2-4.4,4.67-5.2,6.16,4.98,4.43,11.03,10.71,16.6,19.19.68,1.04,1.33,2.07,1.94,3.09,2.92,4.81,5.09,9.36,6.74,13.37" fill="none" stroke="#263238" stroke-linecap="round" stroke-linejoin="round" stroke-width="10"/><path d="m118.21,357.6c3.57,1.01,7.41,2.28,11.44,3.9,6.83,2.74,12.67,5.86,17.5,8.86" fill="none" stroke="#263238" stroke-linecap="round" stroke-linejoin="round" stroke-width="10"/><path d="m141.66,233.25c-3.8-3.1-26.5-21.02-57.59-16.34-21.37,3.22-35.09,15.36-40.02,20.2,2.53.48,5.07.97,7.6,1.45-2.17,3.75-4.34,7.49-6.51,11.24,6.21-5.79,19.3-16.4,39.03-21.37,27.47-6.92,49.98,1.59,57.49,4.81Z" fill="#fff"/><path d="m167.5,222.7c4.65-1.54,32.26-10.18,59.63,5.28,18.82,10.63,27.3,26.87,30.18,33.15-2.54-.45-5.08-.9-7.62-1.35.69,4.27,1.38,8.54,2.07,12.82-3.73-7.62-12.18-22.2-28.84-33.88-23.2-16.26-47.26-16.34-55.42-16.01Z" fill="#fff"/><path d="m163.34,60.57v-8.62c0-2.54.34-4.44,1.03-5.71.69-1.27,1.9-2.28,3.64-3.04.89-.4,2.41-.83,4.57-1.3,2.16-.47,3.77-.95,4.84-1.44,2.58-.98,4.51-2.38,5.78-4.21,1.27-1.83,1.9-4.07,1.9-6.75,0-2.45-.94-4.56-2.81-6.34-1.87-1.78-4.12-2.67-6.74-2.67-2.36,0-4.5.48-6.41,1.44-1.91.96-3.99,2.64-6.21,5.04-.27.27-.69.71-1.27,1.34-3.7,4.1-6.97,6.14-9.82,6.14-2.54,0-4.65-.93-6.34-2.8-1.69-1.87-2.54-4.25-2.54-7.15,0-6.23,3.23-11.88,9.68-16.93,6.45-5.05,14.09-7.58,22.91-7.58,9.39,0,17.21,2.93,23.44,8.78,6.23,5.85,9.35,13.1,9.35,21.74,0,7.44-2.16,13.74-6.48,18.9-4.32,5.16-10.13,8.44-17.43,9.82v.4c0,4.19-.96,7.47-2.87,9.85-1.91,2.38-4.52,3.57-7.81,3.57s-5.85-1.08-7.68-3.24c-1.83-2.16-2.74-5.24-2.74-9.25Zm-1.47,29.85c0-3.34,1.17-6.15,3.51-8.45,2.34-2.29,5.18-3.44,8.51-3.44s6.1,1.16,8.41,3.47c2.31,2.31,3.47,5.12,3.47,8.41s-1.17,6.12-3.51,8.48c-2.34,2.36-5.13,3.54-8.38,3.54s-6.12-1.18-8.48-3.54c-2.36-2.36-3.54-5.19-3.54-8.48Z" fill="#263238"/></g></svg>