<?xml version="1.0" encoding="UTF-8"?><svg xmlns="http://www.w3.org/2000/svg" width="493" height="609.15" viewBox="0 0 493 609.15"><g id="Tail"><path d="m362.09,525.17c-4.48-39.13,4.78-60.96,14.77-73.84,8.28-10.67,18.03-16.46,28.52-33.61,9.2-15.05,13.27-29.55,15.28-39.72,2.36,2.01,7.15,6.66,9.67,14.26,1.67,5.01,1.72,9.42,1.53,12.22,2.85-2.58,7.93-7.97,10.18-16.29,4.86-17.94-7.96-32.77-9.17-34.12,8.94,4.43,31.58,17.15,44.81,43.79,15.02,30.25,16.05,74.68-13.24,105.92-25.68,27.38-66.58,36-102.35,21.39Z" fill="#b9937e" stroke="#263238" stroke-linecap="round" stroke-linejoin="round" stroke-width="10"/><path d="m361.84,524.22c1.57-11.68,6.12-33.63,21.58-56.05,12.57-18.24,27.18-29.3,36.55-35.3-.93,3.37-1.89,8.62-1.02,14.89.41,2.99,1.15,5.57,1.92,7.67,5.82-2.53,13.12-6.44,20.53-12.57,13.54-11.19,20.56-24.06,24.01-31.82,5.2,12.38,9.93,30.49,4.73,49.62-10.08,37.03-53.86,64.64-108.28,63.56Z" fill="#fff"/></g><g id="Body"><path d="m366.19,562.76c10.44-40.3,6.85-72.14-7.93-79.41-2.93-1.44-7.34-2.43-13.97-.77h-187.28c-6.63-1.66-11.04-.68-13.97.77-14.78,7.27-18.36,39.12-7.93,79.41" fill="#fff" stroke="#263238" stroke-linecap="round" stroke-linejoin="round" stroke-width="10"/><path d="m343.83,554.17c14.4-8.14,30.51-3.18,36.94,8.75,6.52,12.08.5,26.46,0,27.62-21.75.31-43.51.61-65.26.92h-129.7c-21.75-.31-43.51-.61-65.26-.92-.5-1.16-6.52-15.54,0-27.62,6.44-11.92,22.54-16.88,36.94-8.75" fill="#fff" stroke="#263238" stroke-linecap="round" stroke-linejoin="round" stroke-width="10"/><path d="m329.06,552.27c5.84-9.98,14.12-26.95,17.62-49.62,3.76-24.29.34-44.23-2.52-55.76,1.95.15,4.37.53,7.05,1.41,1.63.54,3.06,1.17,4.28,1.79-1.66-4.31-4.55-10.38-9.57-16.62-4.91-6.11-10.08-10.15-13.84-12.66,2.08-.16,4.7-.18,7.68.26,2.45.36,4.57.94,6.29,1.53-2.75-3.17-7.02-7.4-13.09-11.13-5.51-3.39-10.66-5.23-14.47-6.27h-135.68c-3.82,1.04-8.96,2.88-14.47,6.27-6.07,3.73-10.34,7.95-13.09,11.13,1.72-.6,3.84-1.18,6.29-1.53,2.98-.44,5.6-.42,7.68-.26-3.77,2.51-8.93,6.55-13.84,12.66-5.02,6.24-7.91,12.32-9.57,16.62,1.22-.62,2.64-1.25,4.28-1.79,2.68-.88,5.1-1.26,7.05-1.41-2.86,11.53-6.27,31.46-2.52,55.76,3.5,22.67,11.78,39.64,17.62,49.62" fill="#fff" stroke="#263238" stroke-linecap="round" stroke-linejoin="round" stroke-width="10"/><path d="m172.25,552.27c-2.92-4.99-6.45-11.73-9.69-20.04-3.24-8.33-6.18-18.24-7.93-29.57-1.88-12.14-1.96-23.2-1.22-32.66.73-9.46,2.31-17.33,3.73-23.1-.97.08-2.06.2-3.25.43-1.18.23-2.46.54-3.8.98-.81.27-1.58.56-2.29.86-.72.31-1.37.62-1.99.93.83-2.16,1.97-4.75,3.53-7.58,1.55-2.84,3.53-5.91,6.04-9.03,2.45-3.06,4.98-5.6,7.35-7.69,2.38-2.09,4.61-3.72,6.49-4.98-1.04-.09-2.22-.13-3.5-.09-1.29.03-2.68.13-4.18.35-1.23.18-2.37.42-3.42.68s-2.01.55-2.87.85c1.37-1.59,3.13-3.43,5.3-5.35,2.16-1.92,4.76-3.91,7.79-5.77,2.75-1.7,5.42-3,7.87-4.01,2.45-1.01,4.69-1.74,6.6-2.26h19.24c-9.25,9.95-22.76,27.22-31.07,52.05-14.62,43.69-3.38,81.68,1.26,95.01Z" fill="#b9937e"/><path d="m329.06,552.27c2.92-4.99,6.45-11.73,9.69-20.04,3.24-8.33,6.18-18.24,7.93-29.57,1.88-12.14,1.96-23.2,1.22-32.66-.73-9.46-2.31-17.33-3.73-23.1.97.08,2.06.2,3.25.43,1.18.23,2.46.54,3.8.98.81.27,1.58.56,2.29.86.72.31,1.37.62,1.99.93-.83-2.16-1.97-4.75-3.53-7.58-1.55-2.84-3.53-5.91-6.04-9.03-2.45-3.06-4.98-5.6-7.35-7.69-2.38-2.09-4.61-3.72-6.49-4.98,1.04-.09,2.22-.13,3.5-.09,1.29.03,2.68.13,4.18.35,1.23.18,2.37.42,3.42.68s2.01.55,2.87.85c-1.37-1.59-3.13-3.43-5.3-5.35-2.16-1.92-4.76-3.91-7.79-5.77-2.75-1.7-5.42-3-7.87-4.01-2.45-1.01-4.69-1.74-6.6-2.26h-19.24c9.25,9.95,22.76,27.22,31.07,52.05,14.62,43.69,3.38,81.68-1.26,95.01Z" fill="#b9937e"/><path d="m329.06,552.27c5.84-9.98,14.12-26.95,17.62-49.62,3.76-24.29.34-44.23-2.52-55.76,1.95.15,4.37.53,7.05,1.41,1.63.54,3.06,1.17,4.28,1.79-1.66-4.31-4.55-10.38-9.57-16.62-4.91-6.11-10.08-10.15-13.84-12.66,2.08-.16,4.7-.18,7.68.26,2.45.36,4.57.94,6.29,1.53-2.75-3.17-7.02-7.4-13.09-11.13-5.51-3.39-10.66-5.23-14.47-6.27h-135.68c-3.82,1.04-8.96,2.88-14.47,6.27-6.07,3.73-10.34,7.95-13.09,11.13,1.72-.6,3.84-1.18,6.29-1.53,2.98-.44,5.6-.42,7.68-.26-3.77,2.51-8.93,6.55-13.84,12.66-5.02,6.24-7.91,12.32-9.57,16.62,1.22-.62,2.64-1.25,4.28-1.79,2.68-.88,5.1-1.26,7.05-1.41-2.86,11.53-6.27,31.46-2.52,55.76,3.5,22.67,11.78,39.64,17.62,49.62" fill="none" stroke="#263238" stroke-linecap="round" stroke-linejoin="round" stroke-width="10"/><path d="m184.58,447.22c.84,3.73,2.72,9.73,7.17,15.86,3.24,4.45,6.77,7.49,9.44,9.44,2.72,8.74,5.46,20.88,5.66,35.49.28,20.36-4.5,36.64-8.37,46.73" fill="none" stroke="#263238" stroke-linecap="round" stroke-linejoin="round" stroke-width="10"/><path d="m250.65,472.14v132.01h-81.8c-1.68-5.14-5.6-19.26,0-31.24,7.99-17.07,33.05-24.94,58.51-11.36" fill="#fff" stroke="#263238" stroke-linecap="round" stroke-linejoin="round" stroke-width="10"/><path d="m250.65,472.14v132.01h81.8c1.68-5.14,5.6-19.26,0-31.24-7.99-17.07-33.05-24.94-58.51-11.36" fill="none" stroke="#263238" stroke-linecap="round" stroke-linejoin="round" stroke-width="10"/><path d="m316.73,447.22c-.84,3.73-2.72,9.73-7.17,15.86-3.24,4.45-6.77,7.49-9.44,9.44-2.72,8.74-5.46,20.88-5.66,35.49-.28,20.36,4.5,36.64,8.37,46.73" fill="none" stroke="#263238" stroke-linecap="round" stroke-linejoin="round" stroke-width="10"/><path d="m250.65,472.14v132.01h81.8c1.68-5.14,5.6-19.26,0-31.24-7.99-17.07-33.05-24.94-58.51-11.36" fill="#fff" stroke="#263238" stroke-linecap="round" stroke-linejoin="round" stroke-width="10"/></g><g id="Collar"><circle cx="250.26" cy="483.32" r="24.55" fill="#ffb74d" stroke="#263238" stroke-linecap="round" stroke-linejoin="round" stroke-width="10"/><path d="m172.19,384.29h156.14c0,41.13-33.39,74.51-74.51,74.51h-7.12c-41.13,0-74.51-33.39-74.51-74.51h0Z" fill="#ef5350" stroke="#263238" stroke-linecap="round" stroke-linejoin="round" stroke-width="10"/><path d="m238.49,490.93c.14-.14,2.51-.35,2.51-.35l-.49-14.39s-2.02.07-2.19-.1c-.17-.17.14-5.09.14-5.09l10.07.17.24,4.95-2.44.24.17,3.83,6.72.31-.07-4.28s-2.02-.21-2.06-.21-.45-2.68-.35-4.77c3.48-1.04,11.46.1,11.46.1,0,0-.1,4.77-.17,4.77s-2.58.42-2.58.42l.45,13.76,2.4.28v4.98s-10.8.14-10.8.07-.1-5.09-.1-5.09l2.44-.24-.1-4.6-7.07-.21s-.07,5.09.1,5.09,2.33-.14,2.33.1.49,4.6.31,4.67c-.17.07-10.49.38-10.87-.17-.38-.56-.21-4.11-.07-4.25Z" fill="#263238"/></g><g id="Head"><path d="m372.61,283.23c-2.5-1.41-4.85-2.33-6.79-2.92,2.22,6.55,4.35,14.41,5.79,23.39,1.59,9.96,1.95,18.89,1.76,26.32-1.08-1.13-2.51-2.48-4.31-3.81-1.03-.78-2.2-1.54-3.49-2.28-2.82-1.6-5.45-2.57-7.55-3.17,2.45,6.17,5.45,15.86,5.79,28.02.34,11.9-1.99,21.54-4.02,27.78-1.59-3.46-3.34-7.05-5.28-10.72-1.2-2.25-2.4-4.43-3.61-6.53-9.39,20.61-21.26,31.32-29.99,37.23-18.02,12.2-32.44,10.56-48.71,24.5-10.88,9.32-16.66,20.55-19.88,28.99-.23.61-.74,1.06-1.35,1.25-.2.07-.43.1-.66.1-.9,0-1.71-.54-2.02-1.35-3.21-8.44-9-19.67-19.88-28.99-16.27-13.94-30.69-12.3-48.71-24.5-8.74-5.91-20.61-16.62-29.99-37.23-.22.38-.43.76-.65,1.14-1,1.74-1.99,3.54-2.97,5.39-1.95,3.67-3.71,7.26-5.29,10.72-2.04-6.24-4.36-15.88-4.02-27.78.34-12.16,3.33-21.85,5.79-28.02-2.1.59-4.73,1.57-7.55,3.17-1.3.73-2.46,1.51-3.5,2.29-1.8,1.34-3.22,2.67-4.29,3.8-.19-7.43.16-16.36,1.76-26.32,1.44-8.99,3.58-16.84,5.8-23.39-1.94.59-4.3,1.51-6.8,2.92-3.6,2.04-6.19,4.38-7.92,6.2,1.87-8.42,4.6-17.95,8.68-28.14,2.39-6,4.96-11.49,7.55-16.45-3.59-6.03-8.4-15.97-9.06-28.52-1.14-21.78,11.36-29.96,24.16-66.89,7.47-21.55,5.14-24.33,12.46-39.12.51-1.03,1.03-2.04,1.56-3.04,6.9-13.02,26.43-11.8,31.74,1.91,2.42,6.23,5.34,11.13,8.23,15.03,9.73,13.07,12.19,16.06,18.13,27.42,2.56,4.88,5.62,12.07,7.44,21.75.72-.14,1.47-.28,2.25-.42.07,0,.14-.02.2-.03,10.41-1.81,22.92-1.81,33.33,0,.06,0,.13.02.2.03.69.12,1.36.25,2.01.37,2.27-9.6,5.53-16.8,8.18-21.7,6.27-11.6,8.63-14.67,18.13-27.42,2.9-3.89,5.81-8.8,8.23-15.03,5.32-13.71,24.83-14.93,31.75-1.91.52,1,1.04,2,1.55,3.04,7.33,14.79,4.99,17.57,12.46,39.12,12.8,36.93,25.31,45.11,24.17,66.89-.66,12.55-5.47,22.48-9.06,28.52,2.58,4.97,5.15,10.45,7.55,16.45,4.07,10.19,6.81,19.71,8.67,28.14-1.72-1.82-4.31-4.17-7.92-6.2Z" fill="#b9937e" stroke="#263238" stroke-linecap="round" stroke-linejoin="round" stroke-width="10"/><path d="m174,125.56c8.19,6.94,14.1,13.5,18.14,18.47,3.54,4.37,6.74,8.06,9.43,13.84,2.97,6.4,4.67,12.42,5.67,17.55-4.23-.93-10.65-1.84-18.37-.98-8.99,1.01-15.83,3.96-19.88,6.1,1.55.67,4.3,2.09,6.79,4.88,2.34,2.62,3.41,5.26,3.9,6.82-5.74,3.27-12.9,8.1-20.01,15.11-.87.86-1.7,1.72-2.51,2.57-3.79,4.02-6.81,7.94-9.2,11.43-1.71-4.25-3.62-10.69-3.02-18.32,1.21-15.27,11.5-22.9,19.26-36.74,4.8-8.56,9.81-21.62,9.81-40.72Z" fill="#fff"/><path d="m174,125.56c7.54,6.58,13.58,12.96,18.14,18.47,4.84,5.86,7.99,10.73,9.43,13.84,2.97,6.4,4.67,12.42,5.67,17.55-4.23-.93-10.65-1.84-18.37-.98-8.99,1.01-15.83,3.96-19.88,6.1,1.55.67,4.3,2.09,6.79,4.88,2.34,2.62,3.41,5.26,3.9,6.82-5.74,3.27-12.9,8.1-20.01,15.11-.87.86-1.7,1.72-2.51,2.57-3.79,4.02-6.81,7.94-9.2,11.43" fill="none" stroke="#263238" stroke-linecap="round" stroke-linejoin="round" stroke-width="10"/><path d="m268.9,173.34c4.83.97,8.4,2.04,10.82,2.88" fill="none" stroke="#263238" stroke-linecap="round" stroke-linejoin="round" stroke-width="10"/><path d="m230.91,173.39c-4.83.97-8.4,2.04-10.82,2.88" fill="none" stroke="#263238" stroke-linecap="round" stroke-linejoin="round" stroke-width="10"/><path d="m367.14,319.74c-.36.13-1.05-.77-4.05-2.03-1.27-.53-2.46-.94-3.5-1.25,2.45,6.37,5.45,16.38,5.79,28.94.34,12.29-1.99,22.25-4.02,28.7-1.58-3.57-3.34-7.28-5.28-11.07-1.2-2.33-2.4-4.58-3.61-6.74-9.39,21.29-21.26,32.35-29.99,38.45-18.02,12.6-32.44,10.91-48.71,25.3-10.88,9.62-16.66,21.22-19.88,29.94-.23.63-.74,1.1-1.35,1.3-.2.07-.43.1-.66.1-.9,0-1.71-.55-2.02-1.4-3.21-8.72-9-20.32-19.88-29.94-16.27-14.39-30.69-12.71-48.71-25.3-8.74-6.1-20.61-17.16-29.99-38.45-.22.39-.43.78-.65,1.18-1,1.8-1.99,3.66-2.97,5.56-1.95,3.79-3.71,7.5-5.29,11.07-2.04-6.44-4.36-16.41-4.02-28.7.34-12.56,3.33-22.57,5.79-28.94-2.1.61-4.73,1.62-7.55,3.27-1.3.76-2.46,1.56-3.5,2.36-.44-2.97-6.81-51.75,31.57-84.41,37.3-31.74,82.86-19.3,86.25-18.31,5.46-1.23,52.47-11.03,86.25,19.49,33.28,30.07,32.39,80.02,30.02,80.87Z" fill="#fff"/><path d="m157.33,264.94c.99-2.1,7.51-15.35,23.22-20.06,14.77-4.43,26.83,1.93,29.01,3.14" fill="none" stroke="#263238" stroke-linecap="round" stroke-linejoin="round" stroke-width="10"/><path d="m343.22,264.94c-.99-2.1-7.51-15.35-23.22-20.06-14.77-4.43-26.83,1.93-29.01,3.14" fill="none" stroke="#263238" stroke-linecap="round" stroke-linejoin="round" stroke-width="10"/><path d="m250.28,300.9v-59.7" fill="none" stroke="#263238" stroke-linecap="round" stroke-linejoin="round" stroke-width="10"/><path d="m274.9,370.37c-2.3,1.03-5.84,2.4-10.76,3.55-.06.01-.11.03-.17.04-8.73,2.03-19.21,2.03-27.94,0-.06-.01-.11-.03-.17-.04-4.92-1.15-8.46-2.52-10.76-3.55" fill="none" stroke="#263238" stroke-linecap="round" stroke-linejoin="round" stroke-width="5"/><path d="m279.64,253.82c0,13.77-13.15,24.93-29.37,24.93s-29.37-11.16-29.37-24.93c0-9.66,14.44-18.03,23.07-22.17,3.98-1.91,8.61-1.91,12.59,0,8.63,4.14,23.07,12.51,23.07,22.17Z" fill="#263238" stroke="#263238" stroke-linecap="round" stroke-linejoin="round" stroke-width="10"/><path d="m372.61,282.75c-2.5-1.41-4.85-2.33-6.79-2.92,2.22,6.55,4.35,14.41,5.79,23.39,1.59,9.96,1.95,18.89,1.76,26.32-1.7-1.78-4.25-4.08-7.81-6.09-2.82-1.6-5.45-2.57-7.55-3.17,2.45,6.17,5.45,15.86,5.79,28.02.34,11.9-1.99,21.54-4.02,27.78-1.59-3.46-3.34-7.05-5.28-10.72-1.2-2.25-2.4-4.43-3.61-6.53-9.39,20.61-21.26,31.32-29.99,37.23-18.02,12.2-32.44,10.56-48.71,24.5-10.89,9.32-16.66,20.55-19.88,28.99-.31.82-1.12,1.35-2.02,1.35h0c-.9,0-1.71-.54-2.02-1.35-3.21-8.44-9-19.67-19.88-28.98-16.27-13.94-30.69-12.3-48.71-24.5-8.74-5.91-20.61-16.62-29.99-37.23-1.21,2.1-2.42,4.27-3.61,6.53-1.95,3.67-3.71,7.26-5.29,10.72-2.04-6.24-4.36-15.88-4.02-27.78.34-12.16,3.33-21.85,5.79-28.02-2.1.59-4.73,1.57-7.55,3.17-3.55,2.01-6.1,4.31-7.8,6.09-.19-7.43.16-16.36,1.76-26.32,1.44-8.99,3.58-16.84,5.8-23.39-1.94.59-4.3,1.51-6.8,2.92-3.6,2.04-6.19,4.38-7.92,6.2,1.87-8.42,4.6-17.95,8.68-28.14,2.39-6,4.96-11.49,7.55-16.45-3.59-6.03-8.4-15.97-9.06-28.52-1.14-21.78,11.36-29.96,24.16-66.89,7.47-21.55,5.14-24.33,12.46-39.12.51-1.03,1.03-2.04,1.56-3.04,6.9-13.02,26.43-11.8,31.74,1.91,2.42,6.23,5.34,11.13,8.23,15.03,9.73,13.07,12.19,16.06,18.13,27.42,2.56,4.88,5.62,12.07,7.44,21.75.72-.14,1.47-.28,2.25-.42.07,0,.14-.02.2-.03,10.41-1.81,22.92-1.81,33.33,0,.06,0,.13.02.2.03.69.12,1.36.25,2.01.37,2.27-9.6,5.53-16.8,8.18-21.7,6.27-11.6,8.63-14.67,18.13-27.42,2.9-3.89,5.81-8.8,8.23-15.03,5.32-13.7,24.83-14.93,31.75-1.91.52,1,1.04,2.01,1.55,3.04,7.33,14.79,4.99,17.57,12.46,39.12,12.8,36.93,25.31,45.11,24.17,66.89-.66,12.55-5.47,22.48-9.06,28.52,2.58,4.97,5.15,10.45,7.55,16.45,4.07,10.19,6.81,19.71,8.67,28.14-1.72-1.82-4.31-4.17-7.92-6.2Z" fill="none" stroke="#263238" stroke-linecap="round" stroke-linejoin="round" stroke-width="10"/><path d="m326.55,124.23c-8.19,6.94-14.1,13.5-18.14,18.47-3.54,4.37-6.74,8.06-9.43,13.84-2.97,6.4-4.67,12.42-5.67,17.55,4.23-.93,10.65-1.84,18.37-.98,8.99,1.01,15.83,3.96,19.88,6.1-1.55.67-4.3,2.09-6.79,4.88-2.34,2.62-3.41,5.26-3.9,6.82,5.74,3.27,12.9,8.1,20.01,15.11.87.86,1.7,1.72,2.51,2.57,3.79,4.02,6.81,7.94,9.2,11.43,1.71-4.25,3.62-10.69,3.02-18.32-1.21-15.27-11.5-22.9-19.26-36.74-4.8-8.56-9.81-21.62-9.81-40.72Z" fill="#fff"/><path d="m326.55,124.23c-7.54,6.58-13.58,12.96-18.14,18.47-4.84,5.86-7.99,10.73-9.43,13.84-2.97,6.4-4.67,12.42-5.67,17.55,4.23-.93,10.65-1.84,18.37-.98,8.99,1.01,15.83,3.96,19.88,6.1-1.55.67-4.3,2.09-6.79,4.88-2.34,2.62-3.41,5.26-3.9,6.82,5.74,3.27,12.9,8.1,20.01,15.11.87.86,1.7,1.72,2.51,2.57,3.79,4.02,6.81,7.94,9.2,11.43" fill="none" stroke="#263238" stroke-linecap="round" stroke-linejoin="round" stroke-width="10"/><path d="m239.8,213.38c-4.22-2.33-29.34-15.69-58.61-5.71-20.12,6.86-31.26,21.02-35.19,26.58,2.54.02,5.08.05,7.62.07-1.44,4.01-2.88,8.01-4.33,12.02,4.99-6.69,15.8-19.26,34.02-27.53,25.37-11.52,48.65-7.23,56.48-5.43Z" fill="#fff"/><path d="m262.72,213.44c4.23-2.31,29.44-15.52,58.64-5.35,20.08,6.98,31.13,21.21,35.03,26.79-2.54,0-5.08.02-7.62.03,1.42,4.01,2.84,8.03,4.25,12.04-4.95-6.72-15.68-19.35-33.86-27.73-25.3-11.67-48.61-7.53-56.45-5.77Z" fill="#fff"/><path d="m291.7,303.85v11.74c0,1.85-.12,3.66-.36,5.44-.18,1.34-.42,2.66-.72,3.95-1.01,4.4-2.73,8.52-5.02,12.25-7.28,11.87-20.38,19.79-35.33,19.79s-28.04-7.92-35.32-19.79c-2.29-3.73-4.01-7.85-5.02-12.24-.31-1.3-.55-2.62-.72-3.96-.24-1.78-.36-3.59-.36-5.44v-11.74c11.13-2.24,25.02-4.1,41.03-4.13,16.36-.03,30.53,1.86,41.82,4.13Z" fill="#db5c5c"/><path d="m290.62,324.98c-1.01,4.4-2.73,8.52-5.02,12.25-7.28,11.87-20.38,19.79-35.33,19.79s-28.04-7.92-35.32-19.79c-2.29-3.73-4.01-7.85-5.02-12.24,11.93-6.69,25.7-10.5,40.35-10.5s28.41,3.81,40.34,10.49Z" fill="#ef9a9a"/><path d="m291.7,303.85v11.74c0,7.93-2.23,15.35-6.1,21.64-7.28,11.87-20.38,19.79-35.33,19.79s-28.04-7.92-35.32-19.79c-3.87-6.29-6.1-13.71-6.1-21.64v-11.74c11.13-2.24,25.02-4.1,41.03-4.13,16.36-.03,30.53,1.86,41.82,4.13Z" fill="none" stroke="#263238" stroke-linecap="round" stroke-linejoin="round" stroke-width="10"/><polygon points="397.46 90.99 380.69 77.52 419.2 20.55 444.81 41.13 397.46 90.99" fill="#ef5350" stroke="#263238" stroke-linecap="round" stroke-linejoin="round" stroke-width="10"/><polygon points="406.52 134.11 394.06 116.57 446.65 72.27 465.67 99.05 406.52 134.11" fill="#ef5350" stroke="#263238" stroke-linecap="round" stroke-linejoin="round" stroke-width="10"/><polygon points="344.95 70.31 364.76 78.7 396.71 17.82 366.46 5 344.95 70.31" fill="#ef5350" stroke="#263238" stroke-linecap="round" stroke-linejoin="round" stroke-width="10"/><polygon points="82.09 156.4 68.77 169.41 23.83 130.42 44.16 110.55 82.09 156.4" fill="#ef5350" stroke="#263238" stroke-linecap="round" stroke-linejoin="round" stroke-width="10"/><polygon points="120.07 153.08 103.71 161.97 71.1 112.2 96.08 98.63 120.07 153.08" fill="#ef5350" stroke="#263238" stroke-linecap="round" stroke-linejoin="round" stroke-width="10"/><polygon points="58.88 199.37 68.14 183.22 19.15 149.46 5 174.12 58.88 199.37" fill="#ef5350" stroke="#263238" stroke-linecap="round" stroke-linejoin="round" stroke-width="10"/></g></svg>